<mxfile host="app.diagrams.net" modified="2023-07-27T13:41:48.688Z" agent="Mozilla/5.0 (Windows NT 10.0; Win64; x64) AppleWebKit/537.36 (KHTML, like Gecko) Chrome/114.0.0.0 Safari/537.36" etag="26COnWt7CNHH5lLWQ-uT" version="21.6.5" type="device">
  <diagram name="Página-1" id="qBSSXRKxBomLlhVmfmv1">
    <mxGraphModel dx="1050" dy="581" grid="1" gridSize="10" guides="1" tooltips="1" connect="1" arrows="1" fold="1" page="1" pageScale="1" pageWidth="827" pageHeight="1169" math="0" shadow="0">
      <root>
        <mxCell id="0" />
        <mxCell id="1" parent="0" />
        <mxCell id="nSm_Fh-NACfpATgbBI2l-1" value="&lt;div style=&quot;font-size: 13px;&quot;&gt;&lt;font style=&quot;font-size: 13px;&quot;&gt;Uma clínica veterinária deseja cadastrar os pets que são atendidos em seu local.&lt;/font&gt;&lt;/div&gt;&lt;div style=&quot;font-size: 13px;&quot;&gt;&lt;font style=&quot;font-size: 13px;&quot;&gt;&lt;br&gt;&lt;/font&gt;&lt;/div&gt;&lt;div style=&quot;font-size: 13px;&quot;&gt;&lt;font style=&quot;font-size: 13px;&quot;&gt;- a clínica contém um endereço;&lt;/font&gt;&lt;/div&gt;&lt;div style=&quot;font-size: 13px;&quot;&gt;&lt;font style=&quot;font-size: 13px;&quot;&gt;- os pets deverão ter nome, data de nascimento, tipo de pet;&lt;/font&gt;&lt;/div&gt;&lt;div style=&quot;font-size: 13px;&quot;&gt;&lt;font style=&quot;font-size: 13px;&quot;&gt;- os pets deverão ter raça;&lt;/font&gt;&lt;/div&gt;&lt;div style=&quot;font-size: 13px;&quot;&gt;&lt;font style=&quot;font-size: 13px;&quot;&gt;- os pets deverão ter donos;&lt;/font&gt;&lt;/div&gt;&lt;div style=&quot;font-size: 13px;&quot;&gt;&lt;font style=&quot;font-size: 13px;&quot;&gt;- a clínica deseja cadastrar seus veterinários e todo atendimento de pet será feito por um veterinário;&lt;/font&gt;&lt;/div&gt;" style="text;html=1;align=left;verticalAlign=middle;resizable=0;points=[];autosize=1;strokeColor=none;fillColor=none;" parent="1" vertex="1">
          <mxGeometry x="114" width="600" height="120" as="geometry" />
        </mxCell>
        <mxCell id="nSm_Fh-NACfpATgbBI2l-2" value="&lt;font style=&quot;font-size: 13px;&quot;&gt;&lt;font style=&quot;font-size: 13px;&quot;&gt;C&lt;/font&gt;línica&lt;/font&gt;" style="swimlane;fontStyle=0;childLayout=stackLayout;horizontal=1;startSize=30;horizontalStack=0;resizeParent=1;resizeParentMax=0;resizeLast=0;collapsible=1;marginBottom=0;whiteSpace=wrap;html=1;" parent="1" vertex="1">
          <mxGeometry x="120" y="250" width="140" height="60" as="geometry" />
        </mxCell>
        <mxCell id="nSm_Fh-NACfpATgbBI2l-3" value="&lt;font style=&quot;font-size: 13px;&quot;&gt;- Endereço&lt;/font&gt;" style="text;strokeColor=none;fillColor=none;align=left;verticalAlign=middle;spacingLeft=4;spacingRight=4;overflow=hidden;points=[[0,0.5],[1,0.5]];portConstraint=eastwest;rotatable=0;whiteSpace=wrap;html=1;" parent="nSm_Fh-NACfpATgbBI2l-2" vertex="1">
          <mxGeometry y="30" width="140" height="30" as="geometry" />
        </mxCell>
        <mxCell id="aXNSUFcS2eIyysZ0dD_0-5" style="edgeStyle=orthogonalEdgeStyle;rounded=0;orthogonalLoop=1;jettySize=auto;html=1;entryX=0.5;entryY=1;entryDx=0;entryDy=0;endArrow=none;endFill=0;exitX=0.5;exitY=0;exitDx=0;exitDy=0;" parent="1" source="nSm_Fh-NACfpATgbBI2l-10" edge="1">
          <mxGeometry relative="1" as="geometry">
            <mxPoint x="307.5" y="205" as="targetPoint" />
            <Array as="points">
              <mxPoint x="400" y="225" />
              <mxPoint x="308" y="225" />
            </Array>
          </mxGeometry>
        </mxCell>
        <mxCell id="nSm_Fh-NACfpATgbBI2l-10" value="Pets" style="swimlane;fontStyle=0;childLayout=stackLayout;horizontal=1;startSize=30;horizontalStack=0;resizeParent=1;resizeParentMax=0;resizeLast=0;collapsible=1;marginBottom=0;whiteSpace=wrap;html=1;" parent="1" vertex="1">
          <mxGeometry x="330" y="235" width="140" height="90" as="geometry" />
        </mxCell>
        <mxCell id="nSm_Fh-NACfpATgbBI2l-11" value="- Nome" style="text;strokeColor=none;fillColor=none;align=left;verticalAlign=middle;spacingLeft=4;spacingRight=4;overflow=hidden;points=[[0,0.5],[1,0.5]];portConstraint=eastwest;rotatable=0;whiteSpace=wrap;html=1;" parent="nSm_Fh-NACfpATgbBI2l-10" vertex="1">
          <mxGeometry y="30" width="140" height="30" as="geometry" />
        </mxCell>
        <mxCell id="nSm_Fh-NACfpATgbBI2l-12" value="- Data de Nascimento" style="text;strokeColor=none;fillColor=none;align=left;verticalAlign=middle;spacingLeft=4;spacingRight=4;overflow=hidden;points=[[0,0.5],[1,0.5]];portConstraint=eastwest;rotatable=0;whiteSpace=wrap;html=1;" parent="nSm_Fh-NACfpATgbBI2l-10" vertex="1">
          <mxGeometry y="60" width="140" height="30" as="geometry" />
        </mxCell>
        <mxCell id="8wSPY-ppsvdyh84R26f_-2" style="edgeStyle=orthogonalEdgeStyle;rounded=0;orthogonalLoop=1;jettySize=auto;html=1;entryX=1;entryY=0.5;entryDx=0;entryDy=0;endArrow=none;endFill=0;" parent="1" source="nSm_Fh-NACfpATgbBI2l-22" target="nSm_Fh-NACfpATgbBI2l-28" edge="1">
          <mxGeometry relative="1" as="geometry" />
        </mxCell>
        <mxCell id="nSm_Fh-NACfpATgbBI2l-22" value="Veterinário" style="rounded=0;whiteSpace=wrap;html=1;" parent="1" vertex="1">
          <mxGeometry x="342.5" y="502.5" width="120" height="60" as="geometry" />
        </mxCell>
        <mxCell id="nSm_Fh-NACfpATgbBI2l-34" style="edgeStyle=orthogonalEdgeStyle;rounded=0;orthogonalLoop=1;jettySize=auto;html=1;entryX=0.5;entryY=0;entryDx=0;entryDy=0;endArrow=none;endFill=0;" parent="1" source="nSm_Fh-NACfpATgbBI2l-27" target="nSm_Fh-NACfpATgbBI2l-22" edge="1">
          <mxGeometry relative="1" as="geometry" />
        </mxCell>
        <mxCell id="g0hsDSkBsKJGjvme_00I-1" style="edgeStyle=orthogonalEdgeStyle;rounded=0;orthogonalLoop=1;jettySize=auto;html=1;entryX=0.411;entryY=1;entryDx=0;entryDy=0;entryPerimeter=0;endArrow=none;endFill=0;" parent="1" source="nSm_Fh-NACfpATgbBI2l-27" target="nSm_Fh-NACfpATgbBI2l-12" edge="1">
          <mxGeometry relative="1" as="geometry">
            <Array as="points">
              <mxPoint x="403" y="369" />
              <mxPoint x="402" y="369" />
            </Array>
          </mxGeometry>
        </mxCell>
        <mxCell id="nSm_Fh-NACfpATgbBI2l-27" value="&lt;font style=&quot;font-size: 13px;&quot;&gt;Atende&lt;/font&gt;" style="rhombus;whiteSpace=wrap;html=1;" parent="1" vertex="1">
          <mxGeometry x="370" y="380" width="65" height="65" as="geometry" />
        </mxCell>
        <mxCell id="nSm_Fh-NACfpATgbBI2l-29" style="edgeStyle=orthogonalEdgeStyle;rounded=0;orthogonalLoop=1;jettySize=auto;html=1;entryX=0.446;entryY=1.007;entryDx=0;entryDy=0;entryPerimeter=0;endArrow=none;endFill=0;" parent="1" source="nSm_Fh-NACfpATgbBI2l-28" target="nSm_Fh-NACfpATgbBI2l-3" edge="1">
          <mxGeometry relative="1" as="geometry">
            <mxPoint x="220" y="340" as="targetPoint" />
          </mxGeometry>
        </mxCell>
        <mxCell id="nSm_Fh-NACfpATgbBI2l-28" value="&lt;span style=&quot;font-size: 13px;&quot;&gt;Possui&lt;/span&gt;" style="rhombus;whiteSpace=wrap;html=1;" parent="1" vertex="1">
          <mxGeometry x="150" y="477.5" width="65" height="65" as="geometry" />
        </mxCell>
        <mxCell id="nSm_Fh-NACfpATgbBI2l-35" value="&lt;font style=&quot;font-size: 13px;&quot;&gt;Dono&lt;/font&gt;" style="rounded=0;whiteSpace=wrap;html=1;" parent="1" vertex="1">
          <mxGeometry x="690" y="280.5" width="120" height="60" as="geometry" />
        </mxCell>
        <mxCell id="nSm_Fh-NACfpATgbBI2l-37" style="edgeStyle=orthogonalEdgeStyle;rounded=0;orthogonalLoop=1;jettySize=auto;html=1;entryX=1;entryY=0.5;entryDx=0;entryDy=0;endArrow=none;endFill=0;" parent="1" source="nSm_Fh-NACfpATgbBI2l-36" target="nSm_Fh-NACfpATgbBI2l-12" edge="1">
          <mxGeometry relative="1" as="geometry" />
        </mxCell>
        <mxCell id="nSm_Fh-NACfpATgbBI2l-38" style="edgeStyle=orthogonalEdgeStyle;rounded=0;orthogonalLoop=1;jettySize=auto;html=1;entryX=0;entryY=0.5;entryDx=0;entryDy=0;endArrow=none;endFill=0;" parent="1" source="nSm_Fh-NACfpATgbBI2l-36" target="nSm_Fh-NACfpATgbBI2l-35" edge="1">
          <mxGeometry relative="1" as="geometry" />
        </mxCell>
        <mxCell id="nSm_Fh-NACfpATgbBI2l-36" value="&lt;span style=&quot;font-size: 13px;&quot;&gt;Possui&lt;/span&gt;" style="rhombus;whiteSpace=wrap;html=1;" parent="1" vertex="1">
          <mxGeometry x="560" y="278" width="65" height="65" as="geometry" />
        </mxCell>
        <mxCell id="nSm_Fh-NACfpATgbBI2l-41" value="&lt;span style=&quot;font-size: 13px;&quot;&gt;N&lt;/span&gt;" style="text;html=1;align=center;verticalAlign=middle;resizable=0;points=[];autosize=1;strokeColor=none;fillColor=none;" parent="1" vertex="1">
          <mxGeometry x="475" y="278" width="30" height="30" as="geometry" />
        </mxCell>
        <mxCell id="nSm_Fh-NACfpATgbBI2l-42" value="&lt;span style=&quot;font-size: 13px;&quot;&gt;1&lt;/span&gt;" style="text;html=1;align=center;verticalAlign=middle;resizable=0;points=[];autosize=1;strokeColor=none;fillColor=none;" parent="1" vertex="1">
          <mxGeometry x="650" y="278" width="30" height="30" as="geometry" />
        </mxCell>
        <mxCell id="nSm_Fh-NACfpATgbBI2l-43" value="&lt;span style=&quot;font-size: 13px;&quot;&gt;1&lt;/span&gt;" style="text;html=1;align=center;verticalAlign=middle;resizable=0;points=[];autosize=1;strokeColor=none;fillColor=none;" parent="1" vertex="1">
          <mxGeometry x="185" y="318" width="30" height="30" as="geometry" />
        </mxCell>
        <mxCell id="nSm_Fh-NACfpATgbBI2l-44" value="&lt;span style=&quot;font-size: 13px;&quot;&gt;1&lt;/span&gt;" style="text;html=1;align=center;verticalAlign=middle;resizable=0;points=[];autosize=1;strokeColor=none;fillColor=none;" parent="1" vertex="1">
          <mxGeometry x="405" y="470" width="30" height="30" as="geometry" />
        </mxCell>
        <mxCell id="nSm_Fh-NACfpATgbBI2l-45" value="&lt;span style=&quot;font-size: 13px;&quot;&gt;N&lt;/span&gt;" style="text;html=1;align=center;verticalAlign=middle;resizable=0;points=[];autosize=1;strokeColor=none;fillColor=none;" parent="1" vertex="1">
          <mxGeometry x="405" y="332.5" width="30" height="30" as="geometry" />
        </mxCell>
        <mxCell id="nSm_Fh-NACfpATgbBI2l-46" value="&lt;span style=&quot;font-size: 13px;&quot;&gt;N&lt;/span&gt;" style="text;html=1;align=center;verticalAlign=middle;resizable=0;points=[];autosize=1;strokeColor=none;fillColor=none;" parent="1" vertex="1">
          <mxGeometry x="220" y="467.5" width="30" height="30" as="geometry" />
        </mxCell>
        <mxCell id="nSm_Fh-NACfpATgbBI2l-47" value="&lt;span style=&quot;font-size: 13px;&quot;&gt;Relacionamento 1 : N&lt;/span&gt;" style="text;html=1;align=center;verticalAlign=middle;resizable=0;points=[];autosize=1;strokeColor=none;fillColor=none;" parent="1" vertex="1">
          <mxGeometry x="530" y="370.5" width="150" height="30" as="geometry" />
        </mxCell>
        <mxCell id="aXNSUFcS2eIyysZ0dD_0-4" style="edgeStyle=orthogonalEdgeStyle;rounded=0;orthogonalLoop=1;jettySize=auto;html=1;entryX=0;entryY=0.5;entryDx=0;entryDy=0;endArrow=none;endFill=0;" parent="1" source="aXNSUFcS2eIyysZ0dD_0-2" edge="1">
          <mxGeometry relative="1" as="geometry">
            <mxPoint x="272.5" y="170" as="targetPoint" />
          </mxGeometry>
        </mxCell>
        <mxCell id="aXNSUFcS2eIyysZ0dD_0-2" value="Raça" style="rounded=0;whiteSpace=wrap;html=1;" parent="1" vertex="1">
          <mxGeometry x="110" y="140" width="120" height="60" as="geometry" />
        </mxCell>
        <mxCell id="aXNSUFcS2eIyysZ0dD_0-3" value="Possui" style="rhombus;whiteSpace=wrap;html=1;" parent="1" vertex="1">
          <mxGeometry x="272.5" y="135" width="70" height="70" as="geometry" />
        </mxCell>
        <mxCell id="aXNSUFcS2eIyysZ0dD_0-6" value="&lt;span style=&quot;font-size: 13px;&quot;&gt;1&lt;/span&gt;" style="text;html=1;align=center;verticalAlign=middle;resizable=0;points=[];autosize=1;strokeColor=none;fillColor=none;" parent="1" vertex="1">
          <mxGeometry x="230" y="140" width="30" height="30" as="geometry" />
        </mxCell>
        <mxCell id="aXNSUFcS2eIyysZ0dD_0-7" value="&lt;span style=&quot;font-size: 13px;&quot;&gt;N&lt;/span&gt;" style="text;html=1;align=center;verticalAlign=middle;resizable=0;points=[];autosize=1;strokeColor=none;fillColor=none;" parent="1" vertex="1">
          <mxGeometry x="312.5" y="195" width="30" height="30" as="geometry" />
        </mxCell>
        <mxCell id="g0hsDSkBsKJGjvme_00I-2" value="Tipo" style="rounded=0;whiteSpace=wrap;html=1;" parent="1" vertex="1">
          <mxGeometry x="605" y="145" width="120" height="60" as="geometry" />
        </mxCell>
        <mxCell id="g0hsDSkBsKJGjvme_00I-4" style="edgeStyle=orthogonalEdgeStyle;rounded=0;orthogonalLoop=1;jettySize=auto;html=1;entryX=0.569;entryY=0.002;entryDx=0;entryDy=0;entryPerimeter=0;exitX=0.5;exitY=1;exitDx=0;exitDy=0;endArrow=none;endFill=0;" parent="1" source="g0hsDSkBsKJGjvme_00I-3" target="nSm_Fh-NACfpATgbBI2l-10" edge="1">
          <mxGeometry relative="1" as="geometry">
            <Array as="points">
              <mxPoint x="525" y="225" />
              <mxPoint x="424" y="225" />
            </Array>
          </mxGeometry>
        </mxCell>
        <mxCell id="g0hsDSkBsKJGjvme_00I-5" style="edgeStyle=orthogonalEdgeStyle;rounded=0;orthogonalLoop=1;jettySize=auto;html=1;entryX=0;entryY=0.5;entryDx=0;entryDy=0;endArrow=none;endFill=0;" parent="1" source="g0hsDSkBsKJGjvme_00I-3" target="g0hsDSkBsKJGjvme_00I-2" edge="1">
          <mxGeometry relative="1" as="geometry" />
        </mxCell>
        <mxCell id="g0hsDSkBsKJGjvme_00I-3" value="Possui" style="rhombus;whiteSpace=wrap;html=1;" parent="1" vertex="1">
          <mxGeometry x="490" y="140" width="70" height="70" as="geometry" />
        </mxCell>
        <mxCell id="g0hsDSkBsKJGjvme_00I-6" value="&lt;span style=&quot;font-size: 13px;&quot;&gt;1&lt;/span&gt;" style="text;html=1;align=center;verticalAlign=middle;resizable=0;points=[];autosize=1;strokeColor=none;fillColor=none;" parent="1" vertex="1">
          <mxGeometry x="575" y="145" width="30" height="30" as="geometry" />
        </mxCell>
        <mxCell id="g0hsDSkBsKJGjvme_00I-7" value="&lt;span style=&quot;font-size: 13px;&quot;&gt;N&lt;/span&gt;" style="text;html=1;align=center;verticalAlign=middle;resizable=0;points=[];autosize=1;strokeColor=none;fillColor=none;" parent="1" vertex="1">
          <mxGeometry x="490" y="195" width="30" height="30" as="geometry" />
        </mxCell>
        <mxCell id="JxcwZFcFQ31Dh_2m2aZE-1" value="Clínica" style="shape=table;startSize=30;container=1;collapsible=1;childLayout=tableLayout;fixedRows=1;rowLines=0;fontStyle=1;align=center;resizeLast=1;html=1;" parent="1" vertex="1">
          <mxGeometry x="40" y="655" width="180" height="90" as="geometry" />
        </mxCell>
        <mxCell id="JxcwZFcFQ31Dh_2m2aZE-2" value="" style="shape=tableRow;horizontal=0;startSize=0;swimlaneHead=0;swimlaneBody=0;fillColor=none;collapsible=0;dropTarget=0;points=[[0,0.5],[1,0.5]];portConstraint=eastwest;top=0;left=0;right=0;bottom=1;" parent="JxcwZFcFQ31Dh_2m2aZE-1" vertex="1">
          <mxGeometry y="30" width="180" height="30" as="geometry" />
        </mxCell>
        <mxCell id="JxcwZFcFQ31Dh_2m2aZE-3" value="PK" style="shape=partialRectangle;connectable=0;fillColor=none;top=0;left=0;bottom=0;right=0;fontStyle=1;overflow=hidden;whiteSpace=wrap;html=1;" parent="JxcwZFcFQ31Dh_2m2aZE-2" vertex="1">
          <mxGeometry width="30" height="30" as="geometry">
            <mxRectangle width="30" height="30" as="alternateBounds" />
          </mxGeometry>
        </mxCell>
        <mxCell id="JxcwZFcFQ31Dh_2m2aZE-4" value="IdClinica" style="shape=partialRectangle;connectable=0;fillColor=none;top=0;left=0;bottom=0;right=0;align=left;spacingLeft=6;fontStyle=5;overflow=hidden;whiteSpace=wrap;html=1;" parent="JxcwZFcFQ31Dh_2m2aZE-2" vertex="1">
          <mxGeometry x="30" width="150" height="30" as="geometry">
            <mxRectangle width="150" height="30" as="alternateBounds" />
          </mxGeometry>
        </mxCell>
        <mxCell id="JxcwZFcFQ31Dh_2m2aZE-5" value="" style="shape=tableRow;horizontal=0;startSize=0;swimlaneHead=0;swimlaneBody=0;fillColor=none;collapsible=0;dropTarget=0;points=[[0,0.5],[1,0.5]];portConstraint=eastwest;top=0;left=0;right=0;bottom=0;" parent="JxcwZFcFQ31Dh_2m2aZE-1" vertex="1">
          <mxGeometry y="60" width="180" height="30" as="geometry" />
        </mxCell>
        <mxCell id="JxcwZFcFQ31Dh_2m2aZE-6" value="" style="shape=partialRectangle;connectable=0;fillColor=none;top=0;left=0;bottom=0;right=0;editable=1;overflow=hidden;whiteSpace=wrap;html=1;" parent="JxcwZFcFQ31Dh_2m2aZE-5" vertex="1">
          <mxGeometry width="30" height="30" as="geometry">
            <mxRectangle width="30" height="30" as="alternateBounds" />
          </mxGeometry>
        </mxCell>
        <mxCell id="JxcwZFcFQ31Dh_2m2aZE-7" value="Endereço" style="shape=partialRectangle;connectable=0;fillColor=none;top=0;left=0;bottom=0;right=0;align=left;spacingLeft=6;overflow=hidden;whiteSpace=wrap;html=1;" parent="JxcwZFcFQ31Dh_2m2aZE-5" vertex="1">
          <mxGeometry x="30" width="150" height="30" as="geometry">
            <mxRectangle width="150" height="30" as="alternateBounds" />
          </mxGeometry>
        </mxCell>
        <mxCell id="JxcwZFcFQ31Dh_2m2aZE-14" value="Pets" style="shape=table;startSize=30;container=1;collapsible=1;childLayout=tableLayout;fixedRows=1;rowLines=0;fontStyle=1;align=center;resizeLast=1;html=1;" parent="1" vertex="1">
          <mxGeometry x="330" y="770" width="180" height="240" as="geometry" />
        </mxCell>
        <mxCell id="JxcwZFcFQ31Dh_2m2aZE-94" style="shape=tableRow;horizontal=0;startSize=0;swimlaneHead=0;swimlaneBody=0;fillColor=none;collapsible=0;dropTarget=0;points=[[0,0.5],[1,0.5]];portConstraint=eastwest;top=0;left=0;right=0;bottom=1;" parent="JxcwZFcFQ31Dh_2m2aZE-14" vertex="1">
          <mxGeometry y="30" width="180" height="30" as="geometry" />
        </mxCell>
        <mxCell id="JxcwZFcFQ31Dh_2m2aZE-95" value="PK" style="shape=partialRectangle;connectable=0;fillColor=none;top=0;left=0;bottom=0;right=0;fontStyle=1;overflow=hidden;whiteSpace=wrap;html=1;" parent="JxcwZFcFQ31Dh_2m2aZE-94" vertex="1">
          <mxGeometry width="30" height="30" as="geometry">
            <mxRectangle width="30" height="30" as="alternateBounds" />
          </mxGeometry>
        </mxCell>
        <mxCell id="JxcwZFcFQ31Dh_2m2aZE-96" value="IdPets" style="shape=partialRectangle;connectable=0;fillColor=none;top=0;left=0;bottom=0;right=0;align=left;spacingLeft=6;fontStyle=5;overflow=hidden;whiteSpace=wrap;html=1;" parent="JxcwZFcFQ31Dh_2m2aZE-94" vertex="1">
          <mxGeometry x="30" width="150" height="30" as="geometry">
            <mxRectangle width="150" height="30" as="alternateBounds" />
          </mxGeometry>
        </mxCell>
        <mxCell id="JxcwZFcFQ31Dh_2m2aZE-91" style="shape=tableRow;horizontal=0;startSize=0;swimlaneHead=0;swimlaneBody=0;fillColor=none;collapsible=0;dropTarget=0;points=[[0,0.5],[1,0.5]];portConstraint=eastwest;top=0;left=0;right=0;bottom=1;" parent="JxcwZFcFQ31Dh_2m2aZE-14" vertex="1">
          <mxGeometry y="60" width="180" height="30" as="geometry" />
        </mxCell>
        <mxCell id="JxcwZFcFQ31Dh_2m2aZE-92" value="FK" style="shape=partialRectangle;connectable=0;fillColor=none;top=0;left=0;bottom=0;right=0;fontStyle=1;overflow=hidden;whiteSpace=wrap;html=1;" parent="JxcwZFcFQ31Dh_2m2aZE-91" vertex="1">
          <mxGeometry width="30" height="30" as="geometry">
            <mxRectangle width="30" height="30" as="alternateBounds" />
          </mxGeometry>
        </mxCell>
        <mxCell id="JxcwZFcFQ31Dh_2m2aZE-93" value="IdDono" style="shape=partialRectangle;connectable=0;fillColor=none;top=0;left=0;bottom=0;right=0;align=left;spacingLeft=6;fontStyle=5;overflow=hidden;whiteSpace=wrap;html=1;" parent="JxcwZFcFQ31Dh_2m2aZE-91" vertex="1">
          <mxGeometry x="30" width="150" height="30" as="geometry">
            <mxRectangle width="150" height="30" as="alternateBounds" />
          </mxGeometry>
        </mxCell>
        <mxCell id="JxcwZFcFQ31Dh_2m2aZE-85" style="shape=tableRow;horizontal=0;startSize=0;swimlaneHead=0;swimlaneBody=0;fillColor=none;collapsible=0;dropTarget=0;points=[[0,0.5],[1,0.5]];portConstraint=eastwest;top=0;left=0;right=0;bottom=1;" parent="JxcwZFcFQ31Dh_2m2aZE-14" vertex="1">
          <mxGeometry y="90" width="180" height="30" as="geometry" />
        </mxCell>
        <mxCell id="JxcwZFcFQ31Dh_2m2aZE-86" value="FK" style="shape=partialRectangle;connectable=0;fillColor=none;top=0;left=0;bottom=0;right=0;fontStyle=1;overflow=hidden;whiteSpace=wrap;html=1;" parent="JxcwZFcFQ31Dh_2m2aZE-85" vertex="1">
          <mxGeometry width="30" height="30" as="geometry">
            <mxRectangle width="30" height="30" as="alternateBounds" />
          </mxGeometry>
        </mxCell>
        <mxCell id="JxcwZFcFQ31Dh_2m2aZE-87" value="IdVeterinario" style="shape=partialRectangle;connectable=0;fillColor=none;top=0;left=0;bottom=0;right=0;align=left;spacingLeft=6;fontStyle=5;overflow=hidden;whiteSpace=wrap;html=1;" parent="JxcwZFcFQ31Dh_2m2aZE-85" vertex="1">
          <mxGeometry x="30" width="150" height="30" as="geometry">
            <mxRectangle width="150" height="30" as="alternateBounds" />
          </mxGeometry>
        </mxCell>
        <mxCell id="JxcwZFcFQ31Dh_2m2aZE-82" style="shape=tableRow;horizontal=0;startSize=0;swimlaneHead=0;swimlaneBody=0;fillColor=none;collapsible=0;dropTarget=0;points=[[0,0.5],[1,0.5]];portConstraint=eastwest;top=0;left=0;right=0;bottom=1;" parent="JxcwZFcFQ31Dh_2m2aZE-14" vertex="1">
          <mxGeometry y="120" width="180" height="30" as="geometry" />
        </mxCell>
        <mxCell id="JxcwZFcFQ31Dh_2m2aZE-83" value="FK" style="shape=partialRectangle;connectable=0;fillColor=none;top=0;left=0;bottom=0;right=0;fontStyle=1;overflow=hidden;whiteSpace=wrap;html=1;" parent="JxcwZFcFQ31Dh_2m2aZE-82" vertex="1">
          <mxGeometry width="30" height="30" as="geometry">
            <mxRectangle width="30" height="30" as="alternateBounds" />
          </mxGeometry>
        </mxCell>
        <mxCell id="JxcwZFcFQ31Dh_2m2aZE-84" value="IdTipo" style="shape=partialRectangle;connectable=0;fillColor=none;top=0;left=0;bottom=0;right=0;align=left;spacingLeft=6;fontStyle=5;overflow=hidden;whiteSpace=wrap;html=1;" parent="JxcwZFcFQ31Dh_2m2aZE-82" vertex="1">
          <mxGeometry x="30" width="150" height="30" as="geometry">
            <mxRectangle width="150" height="30" as="alternateBounds" />
          </mxGeometry>
        </mxCell>
        <mxCell id="JxcwZFcFQ31Dh_2m2aZE-15" value="" style="shape=tableRow;horizontal=0;startSize=0;swimlaneHead=0;swimlaneBody=0;fillColor=none;collapsible=0;dropTarget=0;points=[[0,0.5],[1,0.5]];portConstraint=eastwest;top=0;left=0;right=0;bottom=1;" parent="JxcwZFcFQ31Dh_2m2aZE-14" vertex="1">
          <mxGeometry y="150" width="180" height="30" as="geometry" />
        </mxCell>
        <mxCell id="JxcwZFcFQ31Dh_2m2aZE-16" value="FK" style="shape=partialRectangle;connectable=0;fillColor=none;top=0;left=0;bottom=0;right=0;fontStyle=1;overflow=hidden;whiteSpace=wrap;html=1;" parent="JxcwZFcFQ31Dh_2m2aZE-15" vertex="1">
          <mxGeometry width="30" height="30" as="geometry">
            <mxRectangle width="30" height="30" as="alternateBounds" />
          </mxGeometry>
        </mxCell>
        <mxCell id="JxcwZFcFQ31Dh_2m2aZE-17" value="IdRaça" style="shape=partialRectangle;connectable=0;fillColor=none;top=0;left=0;bottom=0;right=0;align=left;spacingLeft=6;fontStyle=5;overflow=hidden;whiteSpace=wrap;html=1;" parent="JxcwZFcFQ31Dh_2m2aZE-15" vertex="1">
          <mxGeometry x="30" width="150" height="30" as="geometry">
            <mxRectangle width="150" height="30" as="alternateBounds" />
          </mxGeometry>
        </mxCell>
        <mxCell id="JxcwZFcFQ31Dh_2m2aZE-18" value="" style="shape=tableRow;horizontal=0;startSize=0;swimlaneHead=0;swimlaneBody=0;fillColor=none;collapsible=0;dropTarget=0;points=[[0,0.5],[1,0.5]];portConstraint=eastwest;top=0;left=0;right=0;bottom=0;" parent="JxcwZFcFQ31Dh_2m2aZE-14" vertex="1">
          <mxGeometry y="180" width="180" height="30" as="geometry" />
        </mxCell>
        <mxCell id="JxcwZFcFQ31Dh_2m2aZE-19" value="" style="shape=partialRectangle;connectable=0;fillColor=none;top=0;left=0;bottom=0;right=0;editable=1;overflow=hidden;whiteSpace=wrap;html=1;" parent="JxcwZFcFQ31Dh_2m2aZE-18" vertex="1">
          <mxGeometry width="30" height="30" as="geometry">
            <mxRectangle width="30" height="30" as="alternateBounds" />
          </mxGeometry>
        </mxCell>
        <mxCell id="JxcwZFcFQ31Dh_2m2aZE-20" value="Nome pet" style="shape=partialRectangle;connectable=0;fillColor=none;top=0;left=0;bottom=0;right=0;align=left;spacingLeft=6;overflow=hidden;whiteSpace=wrap;html=1;" parent="JxcwZFcFQ31Dh_2m2aZE-18" vertex="1">
          <mxGeometry x="30" width="150" height="30" as="geometry">
            <mxRectangle width="150" height="30" as="alternateBounds" />
          </mxGeometry>
        </mxCell>
        <mxCell id="JxcwZFcFQ31Dh_2m2aZE-21" value="" style="shape=tableRow;horizontal=0;startSize=0;swimlaneHead=0;swimlaneBody=0;fillColor=none;collapsible=0;dropTarget=0;points=[[0,0.5],[1,0.5]];portConstraint=eastwest;top=0;left=0;right=0;bottom=0;" parent="JxcwZFcFQ31Dh_2m2aZE-14" vertex="1">
          <mxGeometry y="210" width="180" height="30" as="geometry" />
        </mxCell>
        <mxCell id="JxcwZFcFQ31Dh_2m2aZE-22" value="" style="shape=partialRectangle;connectable=0;fillColor=none;top=0;left=0;bottom=0;right=0;editable=1;overflow=hidden;whiteSpace=wrap;html=1;" parent="JxcwZFcFQ31Dh_2m2aZE-21" vertex="1">
          <mxGeometry width="30" height="30" as="geometry">
            <mxRectangle width="30" height="30" as="alternateBounds" />
          </mxGeometry>
        </mxCell>
        <mxCell id="JxcwZFcFQ31Dh_2m2aZE-23" value="Data de nascimento" style="shape=partialRectangle;connectable=0;fillColor=none;top=0;left=0;bottom=0;right=0;align=left;spacingLeft=6;overflow=hidden;whiteSpace=wrap;html=1;" parent="JxcwZFcFQ31Dh_2m2aZE-21" vertex="1">
          <mxGeometry x="30" width="150" height="30" as="geometry">
            <mxRectangle width="150" height="30" as="alternateBounds" />
          </mxGeometry>
        </mxCell>
        <mxCell id="JxcwZFcFQ31Dh_2m2aZE-27" value="Tipo" style="shape=table;startSize=30;container=1;collapsible=1;childLayout=tableLayout;fixedRows=1;rowLines=0;fontStyle=1;align=center;resizeLast=1;html=1;" parent="1" vertex="1">
          <mxGeometry x="40" y="900" width="180" height="80" as="geometry" />
        </mxCell>
        <mxCell id="JxcwZFcFQ31Dh_2m2aZE-28" value="" style="shape=tableRow;horizontal=0;startSize=0;swimlaneHead=0;swimlaneBody=0;fillColor=none;collapsible=0;dropTarget=0;points=[[0,0.5],[1,0.5]];portConstraint=eastwest;top=0;left=0;right=0;bottom=1;" parent="JxcwZFcFQ31Dh_2m2aZE-27" vertex="1">
          <mxGeometry y="30" width="180" height="20" as="geometry" />
        </mxCell>
        <mxCell id="JxcwZFcFQ31Dh_2m2aZE-29" value="PK" style="shape=partialRectangle;connectable=0;fillColor=none;top=0;left=0;bottom=0;right=0;fontStyle=1;overflow=hidden;whiteSpace=wrap;html=1;" parent="JxcwZFcFQ31Dh_2m2aZE-28" vertex="1">
          <mxGeometry width="30" height="20" as="geometry">
            <mxRectangle width="30" height="20" as="alternateBounds" />
          </mxGeometry>
        </mxCell>
        <mxCell id="JxcwZFcFQ31Dh_2m2aZE-30" value="IdTipo" style="shape=partialRectangle;connectable=0;fillColor=none;top=0;left=0;bottom=0;right=0;align=left;spacingLeft=6;fontStyle=5;overflow=hidden;whiteSpace=wrap;html=1;" parent="JxcwZFcFQ31Dh_2m2aZE-28" vertex="1">
          <mxGeometry x="30" width="150" height="20" as="geometry">
            <mxRectangle width="150" height="20" as="alternateBounds" />
          </mxGeometry>
        </mxCell>
        <mxCell id="JxcwZFcFQ31Dh_2m2aZE-31" value="" style="shape=tableRow;horizontal=0;startSize=0;swimlaneHead=0;swimlaneBody=0;fillColor=none;collapsible=0;dropTarget=0;points=[[0,0.5],[1,0.5]];portConstraint=eastwest;top=0;left=0;right=0;bottom=0;" parent="JxcwZFcFQ31Dh_2m2aZE-27" vertex="1">
          <mxGeometry y="50" width="180" height="30" as="geometry" />
        </mxCell>
        <mxCell id="JxcwZFcFQ31Dh_2m2aZE-32" value="" style="shape=partialRectangle;connectable=0;fillColor=none;top=0;left=0;bottom=0;right=0;editable=1;overflow=hidden;whiteSpace=wrap;html=1;" parent="JxcwZFcFQ31Dh_2m2aZE-31" vertex="1">
          <mxGeometry width="30" height="30" as="geometry">
            <mxRectangle width="30" height="30" as="alternateBounds" />
          </mxGeometry>
        </mxCell>
        <mxCell id="JxcwZFcFQ31Dh_2m2aZE-33" value="Nome tipo" style="shape=partialRectangle;connectable=0;fillColor=none;top=0;left=0;bottom=0;right=0;align=left;spacingLeft=6;overflow=hidden;whiteSpace=wrap;html=1;" parent="JxcwZFcFQ31Dh_2m2aZE-31" vertex="1">
          <mxGeometry x="30" width="150" height="30" as="geometry">
            <mxRectangle width="150" height="30" as="alternateBounds" />
          </mxGeometry>
        </mxCell>
        <mxCell id="JxcwZFcFQ31Dh_2m2aZE-40" value="Raça" style="shape=table;startSize=30;container=1;collapsible=1;childLayout=tableLayout;fixedRows=1;rowLines=0;fontStyle=1;align=center;resizeLast=1;html=1;" parent="1" vertex="1">
          <mxGeometry x="40" y="780" width="180" height="90" as="geometry" />
        </mxCell>
        <mxCell id="JxcwZFcFQ31Dh_2m2aZE-41" value="" style="shape=tableRow;horizontal=0;startSize=0;swimlaneHead=0;swimlaneBody=0;fillColor=none;collapsible=0;dropTarget=0;points=[[0,0.5],[1,0.5]];portConstraint=eastwest;top=0;left=0;right=0;bottom=1;" parent="JxcwZFcFQ31Dh_2m2aZE-40" vertex="1">
          <mxGeometry y="30" width="180" height="30" as="geometry" />
        </mxCell>
        <mxCell id="JxcwZFcFQ31Dh_2m2aZE-42" value="PK" style="shape=partialRectangle;connectable=0;fillColor=none;top=0;left=0;bottom=0;right=0;fontStyle=1;overflow=hidden;whiteSpace=wrap;html=1;" parent="JxcwZFcFQ31Dh_2m2aZE-41" vertex="1">
          <mxGeometry width="30" height="30" as="geometry">
            <mxRectangle width="30" height="30" as="alternateBounds" />
          </mxGeometry>
        </mxCell>
        <mxCell id="JxcwZFcFQ31Dh_2m2aZE-43" value="IdRaça" style="shape=partialRectangle;connectable=0;fillColor=none;top=0;left=0;bottom=0;right=0;align=left;spacingLeft=6;fontStyle=5;overflow=hidden;whiteSpace=wrap;html=1;" parent="JxcwZFcFQ31Dh_2m2aZE-41" vertex="1">
          <mxGeometry x="30" width="150" height="30" as="geometry">
            <mxRectangle width="150" height="30" as="alternateBounds" />
          </mxGeometry>
        </mxCell>
        <mxCell id="JxcwZFcFQ31Dh_2m2aZE-44" value="" style="shape=tableRow;horizontal=0;startSize=0;swimlaneHead=0;swimlaneBody=0;fillColor=none;collapsible=0;dropTarget=0;points=[[0,0.5],[1,0.5]];portConstraint=eastwest;top=0;left=0;right=0;bottom=0;" parent="JxcwZFcFQ31Dh_2m2aZE-40" vertex="1">
          <mxGeometry y="60" width="180" height="30" as="geometry" />
        </mxCell>
        <mxCell id="JxcwZFcFQ31Dh_2m2aZE-45" value="" style="shape=partialRectangle;connectable=0;fillColor=none;top=0;left=0;bottom=0;right=0;editable=1;overflow=hidden;whiteSpace=wrap;html=1;" parent="JxcwZFcFQ31Dh_2m2aZE-44" vertex="1">
          <mxGeometry width="30" height="30" as="geometry">
            <mxRectangle width="30" height="30" as="alternateBounds" />
          </mxGeometry>
        </mxCell>
        <mxCell id="JxcwZFcFQ31Dh_2m2aZE-46" value="Nome Raça" style="shape=partialRectangle;connectable=0;fillColor=none;top=0;left=0;bottom=0;right=0;align=left;spacingLeft=6;overflow=hidden;whiteSpace=wrap;html=1;" parent="JxcwZFcFQ31Dh_2m2aZE-44" vertex="1">
          <mxGeometry x="30" width="150" height="30" as="geometry">
            <mxRectangle width="150" height="30" as="alternateBounds" />
          </mxGeometry>
        </mxCell>
        <mxCell id="JxcwZFcFQ31Dh_2m2aZE-53" value="Dono" style="shape=table;startSize=30;container=1;collapsible=1;childLayout=tableLayout;fixedRows=1;rowLines=0;fontStyle=1;align=center;resizeLast=1;html=1;" parent="1" vertex="1">
          <mxGeometry x="590" y="780" width="180" height="90" as="geometry" />
        </mxCell>
        <mxCell id="JxcwZFcFQ31Dh_2m2aZE-54" value="" style="shape=tableRow;horizontal=0;startSize=0;swimlaneHead=0;swimlaneBody=0;fillColor=none;collapsible=0;dropTarget=0;points=[[0,0.5],[1,0.5]];portConstraint=eastwest;top=0;left=0;right=0;bottom=1;" parent="JxcwZFcFQ31Dh_2m2aZE-53" vertex="1">
          <mxGeometry y="30" width="180" height="30" as="geometry" />
        </mxCell>
        <mxCell id="JxcwZFcFQ31Dh_2m2aZE-55" value="PK" style="shape=partialRectangle;connectable=0;fillColor=none;top=0;left=0;bottom=0;right=0;fontStyle=1;overflow=hidden;whiteSpace=wrap;html=1;" parent="JxcwZFcFQ31Dh_2m2aZE-54" vertex="1">
          <mxGeometry width="30" height="30" as="geometry">
            <mxRectangle width="30" height="30" as="alternateBounds" />
          </mxGeometry>
        </mxCell>
        <mxCell id="JxcwZFcFQ31Dh_2m2aZE-56" value="IdDono" style="shape=partialRectangle;connectable=0;fillColor=none;top=0;left=0;bottom=0;right=0;align=left;spacingLeft=6;fontStyle=5;overflow=hidden;whiteSpace=wrap;html=1;" parent="JxcwZFcFQ31Dh_2m2aZE-54" vertex="1">
          <mxGeometry x="30" width="150" height="30" as="geometry">
            <mxRectangle width="150" height="30" as="alternateBounds" />
          </mxGeometry>
        </mxCell>
        <mxCell id="JxcwZFcFQ31Dh_2m2aZE-57" value="" style="shape=tableRow;horizontal=0;startSize=0;swimlaneHead=0;swimlaneBody=0;fillColor=none;collapsible=0;dropTarget=0;points=[[0,0.5],[1,0.5]];portConstraint=eastwest;top=0;left=0;right=0;bottom=0;" parent="JxcwZFcFQ31Dh_2m2aZE-53" vertex="1">
          <mxGeometry y="60" width="180" height="30" as="geometry" />
        </mxCell>
        <mxCell id="JxcwZFcFQ31Dh_2m2aZE-58" value="" style="shape=partialRectangle;connectable=0;fillColor=none;top=0;left=0;bottom=0;right=0;editable=1;overflow=hidden;whiteSpace=wrap;html=1;" parent="JxcwZFcFQ31Dh_2m2aZE-57" vertex="1">
          <mxGeometry width="30" height="30" as="geometry">
            <mxRectangle width="30" height="30" as="alternateBounds" />
          </mxGeometry>
        </mxCell>
        <mxCell id="JxcwZFcFQ31Dh_2m2aZE-59" value="Nome" style="shape=partialRectangle;connectable=0;fillColor=none;top=0;left=0;bottom=0;right=0;align=left;spacingLeft=6;overflow=hidden;whiteSpace=wrap;html=1;" parent="JxcwZFcFQ31Dh_2m2aZE-57" vertex="1">
          <mxGeometry x="30" width="150" height="30" as="geometry">
            <mxRectangle width="150" height="30" as="alternateBounds" />
          </mxGeometry>
        </mxCell>
        <mxCell id="JxcwZFcFQ31Dh_2m2aZE-66" value="Veterinário" style="shape=table;startSize=30;container=1;collapsible=1;childLayout=tableLayout;fixedRows=1;rowLines=0;fontStyle=1;align=center;resizeLast=1;html=1;" parent="1" vertex="1">
          <mxGeometry x="330" y="640" width="180" height="100" as="geometry" />
        </mxCell>
        <mxCell id="JxcwZFcFQ31Dh_2m2aZE-79" style="shape=tableRow;horizontal=0;startSize=0;swimlaneHead=0;swimlaneBody=0;fillColor=none;collapsible=0;dropTarget=0;points=[[0,0.5],[1,0.5]];portConstraint=eastwest;top=0;left=0;right=0;bottom=1;" parent="JxcwZFcFQ31Dh_2m2aZE-66" vertex="1">
          <mxGeometry y="30" width="180" height="20" as="geometry" />
        </mxCell>
        <mxCell id="JxcwZFcFQ31Dh_2m2aZE-80" value="PK" style="shape=partialRectangle;connectable=0;fillColor=none;top=0;left=0;bottom=0;right=0;fontStyle=1;overflow=hidden;whiteSpace=wrap;html=1;" parent="JxcwZFcFQ31Dh_2m2aZE-79" vertex="1">
          <mxGeometry width="30" height="20" as="geometry">
            <mxRectangle width="30" height="20" as="alternateBounds" />
          </mxGeometry>
        </mxCell>
        <mxCell id="JxcwZFcFQ31Dh_2m2aZE-81" value="IdVeterinario" style="shape=partialRectangle;connectable=0;fillColor=none;top=0;left=0;bottom=0;right=0;align=left;spacingLeft=6;fontStyle=5;overflow=hidden;whiteSpace=wrap;html=1;" parent="JxcwZFcFQ31Dh_2m2aZE-79" vertex="1">
          <mxGeometry x="30" width="150" height="20" as="geometry">
            <mxRectangle width="150" height="20" as="alternateBounds" />
          </mxGeometry>
        </mxCell>
        <mxCell id="JxcwZFcFQ31Dh_2m2aZE-67" value="" style="shape=tableRow;horizontal=0;startSize=0;swimlaneHead=0;swimlaneBody=0;fillColor=none;collapsible=0;dropTarget=0;points=[[0,0.5],[1,0.5]];portConstraint=eastwest;top=0;left=0;right=0;bottom=1;" parent="JxcwZFcFQ31Dh_2m2aZE-66" vertex="1">
          <mxGeometry y="50" width="180" height="20" as="geometry" />
        </mxCell>
        <mxCell id="JxcwZFcFQ31Dh_2m2aZE-68" value="FK" style="shape=partialRectangle;connectable=0;fillColor=none;top=0;left=0;bottom=0;right=0;fontStyle=1;overflow=hidden;whiteSpace=wrap;html=1;" parent="JxcwZFcFQ31Dh_2m2aZE-67" vertex="1">
          <mxGeometry width="30" height="20" as="geometry">
            <mxRectangle width="30" height="20" as="alternateBounds" />
          </mxGeometry>
        </mxCell>
        <mxCell id="JxcwZFcFQ31Dh_2m2aZE-69" value="IdClinica" style="shape=partialRectangle;connectable=0;fillColor=none;top=0;left=0;bottom=0;right=0;align=left;spacingLeft=6;fontStyle=5;overflow=hidden;whiteSpace=wrap;html=1;" parent="JxcwZFcFQ31Dh_2m2aZE-67" vertex="1">
          <mxGeometry x="30" width="150" height="20" as="geometry">
            <mxRectangle width="150" height="20" as="alternateBounds" />
          </mxGeometry>
        </mxCell>
        <mxCell id="JxcwZFcFQ31Dh_2m2aZE-70" value="" style="shape=tableRow;horizontal=0;startSize=0;swimlaneHead=0;swimlaneBody=0;fillColor=none;collapsible=0;dropTarget=0;points=[[0,0.5],[1,0.5]];portConstraint=eastwest;top=0;left=0;right=0;bottom=0;" parent="JxcwZFcFQ31Dh_2m2aZE-66" vertex="1">
          <mxGeometry y="70" width="180" height="30" as="geometry" />
        </mxCell>
        <mxCell id="JxcwZFcFQ31Dh_2m2aZE-71" value="" style="shape=partialRectangle;connectable=0;fillColor=none;top=0;left=0;bottom=0;right=0;editable=1;overflow=hidden;whiteSpace=wrap;html=1;" parent="JxcwZFcFQ31Dh_2m2aZE-70" vertex="1">
          <mxGeometry width="30" height="30" as="geometry">
            <mxRectangle width="30" height="30" as="alternateBounds" />
          </mxGeometry>
        </mxCell>
        <mxCell id="JxcwZFcFQ31Dh_2m2aZE-72" value="Nome Veterinario" style="shape=partialRectangle;connectable=0;fillColor=none;top=0;left=0;bottom=0;right=0;align=left;spacingLeft=6;overflow=hidden;whiteSpace=wrap;html=1;" parent="JxcwZFcFQ31Dh_2m2aZE-70" vertex="1">
          <mxGeometry x="30" width="150" height="30" as="geometry">
            <mxRectangle width="150" height="30" as="alternateBounds" />
          </mxGeometry>
        </mxCell>
        <mxCell id="JxcwZFcFQ31Dh_2m2aZE-97" value="" style="edgeStyle=entityRelationEdgeStyle;fontSize=12;html=1;endArrow=ERoneToMany;rounded=0;entryX=0;entryY=0.5;entryDx=0;entryDy=0;" parent="1" target="JxcwZFcFQ31Dh_2m2aZE-67" edge="1">
          <mxGeometry width="100" height="100" relative="1" as="geometry">
            <mxPoint x="220" y="700" as="sourcePoint" />
            <mxPoint x="320" y="610" as="targetPoint" />
          </mxGeometry>
        </mxCell>
        <mxCell id="JxcwZFcFQ31Dh_2m2aZE-98" value="" style="edgeStyle=entityRelationEdgeStyle;fontSize=12;html=1;endArrow=ERoneToMany;rounded=0;entryX=0;entryY=0.5;entryDx=0;entryDy=0;" parent="1" target="JxcwZFcFQ31Dh_2m2aZE-15" edge="1">
          <mxGeometry width="100" height="100" relative="1" as="geometry">
            <mxPoint x="220" y="830" as="sourcePoint" />
            <mxPoint x="320" y="730" as="targetPoint" />
          </mxGeometry>
        </mxCell>
        <mxCell id="JxcwZFcFQ31Dh_2m2aZE-99" value="" style="edgeStyle=entityRelationEdgeStyle;fontSize=12;html=1;endArrow=ERoneToMany;rounded=0;entryX=0;entryY=0.5;entryDx=0;entryDy=0;" parent="1" target="JxcwZFcFQ31Dh_2m2aZE-82" edge="1">
          <mxGeometry width="100" height="100" relative="1" as="geometry">
            <mxPoint x="220" y="970" as="sourcePoint" />
            <mxPoint x="320" y="870" as="targetPoint" />
          </mxGeometry>
        </mxCell>
        <mxCell id="JxcwZFcFQ31Dh_2m2aZE-100" value="" style="edgeStyle=entityRelationEdgeStyle;fontSize=12;html=1;endArrow=ERoneToMany;rounded=0;entryX=0;entryY=0.5;entryDx=0;entryDy=0;exitX=1;exitY=0.5;exitDx=0;exitDy=0;" parent="1" source="JxcwZFcFQ31Dh_2m2aZE-2" edge="1">
          <mxGeometry width="100" height="100" relative="1" as="geometry">
            <mxPoint x="220" y="710" as="sourcePoint" />
            <mxPoint x="330" y="875" as="targetPoint" />
          </mxGeometry>
        </mxCell>
        <mxCell id="JxcwZFcFQ31Dh_2m2aZE-104" value="" style="edgeStyle=entityRelationEdgeStyle;fontSize=12;html=1;endArrow=ERoneToMany;rounded=0;entryX=1;entryY=0.5;entryDx=0;entryDy=0;" parent="1" target="JxcwZFcFQ31Dh_2m2aZE-85" edge="1">
          <mxGeometry width="100" height="100" relative="1" as="geometry">
            <mxPoint x="510" y="680" as="sourcePoint" />
            <mxPoint x="410" y="580" as="targetPoint" />
          </mxGeometry>
        </mxCell>
        <mxCell id="JxcwZFcFQ31Dh_2m2aZE-107" value="" style="edgeStyle=entityRelationEdgeStyle;fontSize=12;html=1;endArrow=ERoneToMany;rounded=0;entryX=1;entryY=0.5;entryDx=0;entryDy=0;exitX=0;exitY=0.5;exitDx=0;exitDy=0;" parent="1" source="JxcwZFcFQ31Dh_2m2aZE-54" target="JxcwZFcFQ31Dh_2m2aZE-91" edge="1">
          <mxGeometry width="100" height="100" relative="1" as="geometry">
            <mxPoint x="660" y="1030" as="sourcePoint" />
            <mxPoint x="760" y="930" as="targetPoint" />
          </mxGeometry>
        </mxCell>
        <mxCell id="JxcwZFcFQ31Dh_2m2aZE-108" value="Assets" style="childLayout=tableLayout;recursiveResize=0;shadow=0;" parent="1" vertex="1">
          <mxGeometry x="40" y="1080" width="187" height="65" as="geometry" />
        </mxCell>
        <mxCell id="JxcwZFcFQ31Dh_2m2aZE-109" style="shape=tableRow;horizontal=0;startSize=0;swimlaneHead=0;swimlaneBody=0;top=0;left=0;bottom=0;right=0;dropTarget=0;collapsible=0;recursiveResize=0;expand=0;fontStyle=0;strokeColor=inherit;fillColor=#ffffff;" parent="JxcwZFcFQ31Dh_2m2aZE-108" vertex="1">
          <mxGeometry width="187" height="33" as="geometry" />
        </mxCell>
        <mxCell id="JxcwZFcFQ31Dh_2m2aZE-110" value="IdClinica" style="connectable=0;recursiveResize=0;strokeColor=inherit;fillColor=#A7C942;align=center;fontStyle=1;fontColor=#FFFFFF;html=1;" parent="JxcwZFcFQ31Dh_2m2aZE-109" vertex="1">
          <mxGeometry width="93" height="33" as="geometry">
            <mxRectangle width="93" height="33" as="alternateBounds" />
          </mxGeometry>
        </mxCell>
        <mxCell id="JxcwZFcFQ31Dh_2m2aZE-111" value="Endereço" style="connectable=0;recursiveResize=0;strokeColor=inherit;fillColor=#A7C942;align=center;fontStyle=1;fontColor=#FFFFFF;html=1;" parent="JxcwZFcFQ31Dh_2m2aZE-109" vertex="1">
          <mxGeometry x="93" width="94" height="33" as="geometry">
            <mxRectangle width="94" height="33" as="alternateBounds" />
          </mxGeometry>
        </mxCell>
        <mxCell id="JxcwZFcFQ31Dh_2m2aZE-113" value="" style="shape=tableRow;horizontal=0;startSize=0;swimlaneHead=0;swimlaneBody=0;top=0;left=0;bottom=0;right=0;dropTarget=0;collapsible=0;recursiveResize=0;expand=0;fontStyle=0;strokeColor=inherit;fillColor=#ffffff;" parent="JxcwZFcFQ31Dh_2m2aZE-108" vertex="1">
          <mxGeometry y="33" width="187" height="32" as="geometry" />
        </mxCell>
        <mxCell id="JxcwZFcFQ31Dh_2m2aZE-114" value="1" style="connectable=0;recursiveResize=0;strokeColor=inherit;fillColor=inherit;align=center;whiteSpace=wrap;html=1;" parent="JxcwZFcFQ31Dh_2m2aZE-113" vertex="1">
          <mxGeometry width="93" height="32" as="geometry">
            <mxRectangle width="93" height="32" as="alternateBounds" />
          </mxGeometry>
        </mxCell>
        <mxCell id="JxcwZFcFQ31Dh_2m2aZE-115" value="Rua Nitéroi, 180" style="connectable=0;recursiveResize=0;strokeColor=inherit;fillColor=inherit;align=center;whiteSpace=wrap;html=1;" parent="JxcwZFcFQ31Dh_2m2aZE-113" vertex="1">
          <mxGeometry x="93" width="94" height="32" as="geometry">
            <mxRectangle width="94" height="32" as="alternateBounds" />
          </mxGeometry>
        </mxCell>
        <mxCell id="JxcwZFcFQ31Dh_2m2aZE-150" value="Assets" style="childLayout=tableLayout;recursiveResize=0;shadow=0;strokeColor=default;" parent="1" vertex="1">
          <mxGeometry x="33" y="1250" width="187" height="129" as="geometry" />
        </mxCell>
        <mxCell id="JxcwZFcFQ31Dh_2m2aZE-151" style="shape=tableRow;horizontal=0;startSize=0;swimlaneHead=0;swimlaneBody=0;top=0;left=0;bottom=0;right=0;dropTarget=0;collapsible=0;recursiveResize=0;expand=0;fontStyle=0;strokeColor=inherit;fillColor=#ffffff;" parent="JxcwZFcFQ31Dh_2m2aZE-150" vertex="1">
          <mxGeometry width="187" height="33" as="geometry" />
        </mxCell>
        <mxCell id="JxcwZFcFQ31Dh_2m2aZE-152" value="IdDono" style="connectable=0;recursiveResize=0;strokeColor=inherit;fillColor=#A7C942;align=center;fontStyle=1;fontColor=#FFFFFF;html=1;" parent="JxcwZFcFQ31Dh_2m2aZE-151" vertex="1">
          <mxGeometry width="97" height="33" as="geometry">
            <mxRectangle width="97" height="33" as="alternateBounds" />
          </mxGeometry>
        </mxCell>
        <mxCell id="JxcwZFcFQ31Dh_2m2aZE-153" value="Nome" style="connectable=0;recursiveResize=0;strokeColor=inherit;fillColor=#A7C942;align=center;fontStyle=1;fontColor=#FFFFFF;html=1;" parent="JxcwZFcFQ31Dh_2m2aZE-151" vertex="1">
          <mxGeometry x="97" width="90" height="33" as="geometry">
            <mxRectangle width="90" height="33" as="alternateBounds" />
          </mxGeometry>
        </mxCell>
        <mxCell id="JxcwZFcFQ31Dh_2m2aZE-155" value="" style="shape=tableRow;horizontal=0;startSize=0;swimlaneHead=0;swimlaneBody=0;top=0;left=0;bottom=0;right=0;dropTarget=0;collapsible=0;recursiveResize=0;expand=0;fontStyle=0;strokeColor=inherit;fillColor=#ffffff;" parent="JxcwZFcFQ31Dh_2m2aZE-150" vertex="1">
          <mxGeometry y="33" width="187" height="32" as="geometry" />
        </mxCell>
        <mxCell id="JxcwZFcFQ31Dh_2m2aZE-156" value="1" style="connectable=0;recursiveResize=0;strokeColor=inherit;fillColor=inherit;align=center;whiteSpace=wrap;html=1;" parent="JxcwZFcFQ31Dh_2m2aZE-155" vertex="1">
          <mxGeometry width="97" height="32" as="geometry">
            <mxRectangle width="97" height="32" as="alternateBounds" />
          </mxGeometry>
        </mxCell>
        <mxCell id="JxcwZFcFQ31Dh_2m2aZE-157" value="Rogerio" style="connectable=0;recursiveResize=0;strokeColor=inherit;fillColor=inherit;align=center;whiteSpace=wrap;html=1;" parent="JxcwZFcFQ31Dh_2m2aZE-155" vertex="1">
          <mxGeometry x="97" width="90" height="32" as="geometry">
            <mxRectangle width="90" height="32" as="alternateBounds" />
          </mxGeometry>
        </mxCell>
        <mxCell id="JxcwZFcFQ31Dh_2m2aZE-159" value="" style="shape=tableRow;horizontal=0;startSize=0;swimlaneHead=0;swimlaneBody=0;top=0;left=0;bottom=0;right=0;dropTarget=0;collapsible=0;recursiveResize=0;expand=0;fontStyle=1;strokeColor=inherit;fillColor=#EAF2D3;" parent="JxcwZFcFQ31Dh_2m2aZE-150" vertex="1">
          <mxGeometry y="65" width="187" height="31" as="geometry" />
        </mxCell>
        <mxCell id="JxcwZFcFQ31Dh_2m2aZE-160" value="2" style="connectable=0;recursiveResize=0;strokeColor=inherit;fillColor=inherit;whiteSpace=wrap;html=1;" parent="JxcwZFcFQ31Dh_2m2aZE-159" vertex="1">
          <mxGeometry width="97" height="31" as="geometry">
            <mxRectangle width="97" height="31" as="alternateBounds" />
          </mxGeometry>
        </mxCell>
        <mxCell id="JxcwZFcFQ31Dh_2m2aZE-161" value="Henrique" style="connectable=0;recursiveResize=0;strokeColor=inherit;fillColor=inherit;whiteSpace=wrap;html=1;" parent="JxcwZFcFQ31Dh_2m2aZE-159" vertex="1">
          <mxGeometry x="97" width="90" height="31" as="geometry">
            <mxRectangle width="90" height="31" as="alternateBounds" />
          </mxGeometry>
        </mxCell>
        <mxCell id="JxcwZFcFQ31Dh_2m2aZE-163" value="" style="shape=tableRow;horizontal=0;startSize=0;swimlaneHead=0;swimlaneBody=0;top=0;left=0;bottom=0;right=0;dropTarget=0;collapsible=0;recursiveResize=0;expand=0;fontStyle=0;strokeColor=inherit;fillColor=#ffffff;" parent="JxcwZFcFQ31Dh_2m2aZE-150" vertex="1">
          <mxGeometry y="96" width="187" height="33" as="geometry" />
        </mxCell>
        <mxCell id="JxcwZFcFQ31Dh_2m2aZE-164" value="3" style="connectable=0;recursiveResize=0;strokeColor=inherit;fillColor=inherit;fontStyle=0;align=center;whiteSpace=wrap;html=1;" parent="JxcwZFcFQ31Dh_2m2aZE-163" vertex="1">
          <mxGeometry width="97" height="33" as="geometry">
            <mxRectangle width="97" height="33" as="alternateBounds" />
          </mxGeometry>
        </mxCell>
        <mxCell id="JxcwZFcFQ31Dh_2m2aZE-165" value="Pedro" style="connectable=0;recursiveResize=0;strokeColor=inherit;fillColor=inherit;fontStyle=0;align=center;whiteSpace=wrap;html=1;" parent="JxcwZFcFQ31Dh_2m2aZE-163" vertex="1">
          <mxGeometry x="97" width="90" height="33" as="geometry">
            <mxRectangle width="90" height="33" as="alternateBounds" />
          </mxGeometry>
        </mxCell>
        <mxCell id="JxcwZFcFQ31Dh_2m2aZE-171" value="Assets" style="childLayout=tableLayout;recursiveResize=0;shadow=0;" parent="1" vertex="1">
          <mxGeometry x="250" y="1080" width="187" height="129" as="geometry" />
        </mxCell>
        <mxCell id="JxcwZFcFQ31Dh_2m2aZE-172" style="shape=tableRow;horizontal=0;startSize=0;swimlaneHead=0;swimlaneBody=0;top=0;left=0;bottom=0;right=0;dropTarget=0;collapsible=0;recursiveResize=0;expand=0;fontStyle=0;strokeColor=inherit;fillColor=#ffffff;" parent="JxcwZFcFQ31Dh_2m2aZE-171" vertex="1">
          <mxGeometry width="187" height="33" as="geometry" />
        </mxCell>
        <mxCell id="JxcwZFcFQ31Dh_2m2aZE-173" value="IdRaça" style="connectable=0;recursiveResize=0;strokeColor=inherit;fillColor=#A7C942;align=center;fontStyle=1;fontColor=#FFFFFF;html=1;" parent="JxcwZFcFQ31Dh_2m2aZE-172" vertex="1">
          <mxGeometry width="93" height="33" as="geometry">
            <mxRectangle width="93" height="33" as="alternateBounds" />
          </mxGeometry>
        </mxCell>
        <mxCell id="JxcwZFcFQ31Dh_2m2aZE-174" value="Nome Raça" style="connectable=0;recursiveResize=0;strokeColor=inherit;fillColor=#A7C942;align=center;fontStyle=1;fontColor=#FFFFFF;html=1;" parent="JxcwZFcFQ31Dh_2m2aZE-172" vertex="1">
          <mxGeometry x="93" width="94" height="33" as="geometry">
            <mxRectangle width="94" height="33" as="alternateBounds" />
          </mxGeometry>
        </mxCell>
        <mxCell id="JxcwZFcFQ31Dh_2m2aZE-175" value="" style="shape=tableRow;horizontal=0;startSize=0;swimlaneHead=0;swimlaneBody=0;top=0;left=0;bottom=0;right=0;dropTarget=0;collapsible=0;recursiveResize=0;expand=0;fontStyle=0;strokeColor=inherit;fillColor=#ffffff;" parent="JxcwZFcFQ31Dh_2m2aZE-171" vertex="1">
          <mxGeometry y="33" width="187" height="32" as="geometry" />
        </mxCell>
        <mxCell id="JxcwZFcFQ31Dh_2m2aZE-176" value="1" style="connectable=0;recursiveResize=0;strokeColor=inherit;fillColor=inherit;align=center;whiteSpace=wrap;html=1;" parent="JxcwZFcFQ31Dh_2m2aZE-175" vertex="1">
          <mxGeometry width="93" height="32" as="geometry">
            <mxRectangle width="93" height="32" as="alternateBounds" />
          </mxGeometry>
        </mxCell>
        <mxCell id="JxcwZFcFQ31Dh_2m2aZE-177" value="Pinscher" style="connectable=0;recursiveResize=0;strokeColor=inherit;fillColor=inherit;align=center;whiteSpace=wrap;html=1;" parent="JxcwZFcFQ31Dh_2m2aZE-175" vertex="1">
          <mxGeometry x="93" width="94" height="32" as="geometry">
            <mxRectangle width="94" height="32" as="alternateBounds" />
          </mxGeometry>
        </mxCell>
        <mxCell id="JxcwZFcFQ31Dh_2m2aZE-178" value="" style="shape=tableRow;horizontal=0;startSize=0;swimlaneHead=0;swimlaneBody=0;top=0;left=0;bottom=0;right=0;dropTarget=0;collapsible=0;recursiveResize=0;expand=0;fontStyle=1;strokeColor=inherit;fillColor=#EAF2D3;" parent="JxcwZFcFQ31Dh_2m2aZE-171" vertex="1">
          <mxGeometry y="65" width="187" height="31" as="geometry" />
        </mxCell>
        <mxCell id="JxcwZFcFQ31Dh_2m2aZE-179" value="4" style="connectable=0;recursiveResize=0;strokeColor=inherit;fillColor=inherit;whiteSpace=wrap;html=1;" parent="JxcwZFcFQ31Dh_2m2aZE-178" vertex="1">
          <mxGeometry width="93" height="31" as="geometry">
            <mxRectangle width="93" height="31" as="alternateBounds" />
          </mxGeometry>
        </mxCell>
        <mxCell id="JxcwZFcFQ31Dh_2m2aZE-180" value="Gato Persa" style="connectable=0;recursiveResize=0;strokeColor=inherit;fillColor=inherit;whiteSpace=wrap;html=1;" parent="JxcwZFcFQ31Dh_2m2aZE-178" vertex="1">
          <mxGeometry x="93" width="94" height="31" as="geometry">
            <mxRectangle width="94" height="31" as="alternateBounds" />
          </mxGeometry>
        </mxCell>
        <mxCell id="JxcwZFcFQ31Dh_2m2aZE-181" value="" style="shape=tableRow;horizontal=0;startSize=0;swimlaneHead=0;swimlaneBody=0;top=0;left=0;bottom=0;right=0;dropTarget=0;collapsible=0;recursiveResize=0;expand=0;fontStyle=0;strokeColor=inherit;fillColor=#ffffff;" parent="JxcwZFcFQ31Dh_2m2aZE-171" vertex="1">
          <mxGeometry y="96" width="187" height="33" as="geometry" />
        </mxCell>
        <mxCell id="JxcwZFcFQ31Dh_2m2aZE-182" value="7" style="connectable=0;recursiveResize=0;strokeColor=inherit;fillColor=inherit;fontStyle=0;align=center;whiteSpace=wrap;html=1;" parent="JxcwZFcFQ31Dh_2m2aZE-181" vertex="1">
          <mxGeometry width="93" height="33" as="geometry">
            <mxRectangle width="93" height="33" as="alternateBounds" />
          </mxGeometry>
        </mxCell>
        <mxCell id="JxcwZFcFQ31Dh_2m2aZE-183" value="Papagaio" style="connectable=0;recursiveResize=0;strokeColor=inherit;fillColor=inherit;fontStyle=0;align=center;whiteSpace=wrap;html=1;" parent="JxcwZFcFQ31Dh_2m2aZE-181" vertex="1">
          <mxGeometry x="93" width="94" height="33" as="geometry">
            <mxRectangle width="94" height="33" as="alternateBounds" />
          </mxGeometry>
        </mxCell>
        <mxCell id="JxcwZFcFQ31Dh_2m2aZE-185" value="Assets" style="childLayout=tableLayout;recursiveResize=0;shadow=0;" parent="1" vertex="1">
          <mxGeometry x="650" y="1080" width="281" height="129" as="geometry" />
        </mxCell>
        <mxCell id="JxcwZFcFQ31Dh_2m2aZE-186" style="shape=tableRow;horizontal=0;startSize=0;swimlaneHead=0;swimlaneBody=0;top=0;left=0;bottom=0;right=0;dropTarget=0;collapsible=0;recursiveResize=0;expand=0;fontStyle=0;strokeColor=inherit;fillColor=#ffffff;" parent="JxcwZFcFQ31Dh_2m2aZE-185" vertex="1">
          <mxGeometry width="281" height="33" as="geometry" />
        </mxCell>
        <mxCell id="JxcwZFcFQ31Dh_2m2aZE-187" value="IdVeterinario" style="connectable=0;recursiveResize=0;strokeColor=inherit;fillColor=#A7C942;align=center;fontStyle=1;fontColor=#FFFFFF;html=1;" parent="JxcwZFcFQ31Dh_2m2aZE-186" vertex="1">
          <mxGeometry width="93" height="33" as="geometry">
            <mxRectangle width="93" height="33" as="alternateBounds" />
          </mxGeometry>
        </mxCell>
        <mxCell id="JxcwZFcFQ31Dh_2m2aZE-188" value="IdClinica" style="connectable=0;recursiveResize=0;strokeColor=inherit;fillColor=#A7C942;align=center;fontStyle=1;fontColor=#FFFFFF;html=1;" parent="JxcwZFcFQ31Dh_2m2aZE-186" vertex="1">
          <mxGeometry x="93" width="94" height="33" as="geometry">
            <mxRectangle width="94" height="33" as="alternateBounds" />
          </mxGeometry>
        </mxCell>
        <mxCell id="JxcwZFcFQ31Dh_2m2aZE-198" value="Nome" style="connectable=0;recursiveResize=0;strokeColor=inherit;fillColor=#A7C942;align=center;fontStyle=1;fontColor=#FFFFFF;html=1;" parent="JxcwZFcFQ31Dh_2m2aZE-186" vertex="1">
          <mxGeometry x="187" width="94" height="33" as="geometry">
            <mxRectangle width="94" height="33" as="alternateBounds" />
          </mxGeometry>
        </mxCell>
        <mxCell id="JxcwZFcFQ31Dh_2m2aZE-189" value="" style="shape=tableRow;horizontal=0;startSize=0;swimlaneHead=0;swimlaneBody=0;top=0;left=0;bottom=0;right=0;dropTarget=0;collapsible=0;recursiveResize=0;expand=0;fontStyle=0;strokeColor=inherit;fillColor=#ffffff;" parent="JxcwZFcFQ31Dh_2m2aZE-185" vertex="1">
          <mxGeometry y="33" width="281" height="32" as="geometry" />
        </mxCell>
        <mxCell id="JxcwZFcFQ31Dh_2m2aZE-190" value="10" style="connectable=0;recursiveResize=0;strokeColor=inherit;fillColor=inherit;align=center;whiteSpace=wrap;html=1;" parent="JxcwZFcFQ31Dh_2m2aZE-189" vertex="1">
          <mxGeometry width="93" height="32" as="geometry">
            <mxRectangle width="93" height="32" as="alternateBounds" />
          </mxGeometry>
        </mxCell>
        <mxCell id="JxcwZFcFQ31Dh_2m2aZE-191" value="1" style="connectable=0;recursiveResize=0;strokeColor=inherit;fillColor=inherit;align=center;whiteSpace=wrap;html=1;" parent="JxcwZFcFQ31Dh_2m2aZE-189" vertex="1">
          <mxGeometry x="93" width="94" height="32" as="geometry">
            <mxRectangle width="94" height="32" as="alternateBounds" />
          </mxGeometry>
        </mxCell>
        <mxCell id="JxcwZFcFQ31Dh_2m2aZE-199" value="José" style="connectable=0;recursiveResize=0;strokeColor=inherit;fillColor=inherit;align=center;whiteSpace=wrap;html=1;" parent="JxcwZFcFQ31Dh_2m2aZE-189" vertex="1">
          <mxGeometry x="187" width="94" height="32" as="geometry">
            <mxRectangle width="94" height="32" as="alternateBounds" />
          </mxGeometry>
        </mxCell>
        <mxCell id="JxcwZFcFQ31Dh_2m2aZE-192" value="" style="shape=tableRow;horizontal=0;startSize=0;swimlaneHead=0;swimlaneBody=0;top=0;left=0;bottom=0;right=0;dropTarget=0;collapsible=0;recursiveResize=0;expand=0;fontStyle=1;strokeColor=inherit;fillColor=#EAF2D3;" parent="JxcwZFcFQ31Dh_2m2aZE-185" vertex="1">
          <mxGeometry y="65" width="281" height="31" as="geometry" />
        </mxCell>
        <mxCell id="JxcwZFcFQ31Dh_2m2aZE-193" value="11" style="connectable=0;recursiveResize=0;strokeColor=inherit;fillColor=inherit;whiteSpace=wrap;html=1;" parent="JxcwZFcFQ31Dh_2m2aZE-192" vertex="1">
          <mxGeometry width="93" height="31" as="geometry">
            <mxRectangle width="93" height="31" as="alternateBounds" />
          </mxGeometry>
        </mxCell>
        <mxCell id="JxcwZFcFQ31Dh_2m2aZE-194" value="1" style="connectable=0;recursiveResize=0;strokeColor=inherit;fillColor=inherit;whiteSpace=wrap;html=1;" parent="JxcwZFcFQ31Dh_2m2aZE-192" vertex="1">
          <mxGeometry x="93" width="94" height="31" as="geometry">
            <mxRectangle width="94" height="31" as="alternateBounds" />
          </mxGeometry>
        </mxCell>
        <mxCell id="JxcwZFcFQ31Dh_2m2aZE-200" value="Anderson" style="connectable=0;recursiveResize=0;strokeColor=inherit;fillColor=inherit;whiteSpace=wrap;html=1;" parent="JxcwZFcFQ31Dh_2m2aZE-192" vertex="1">
          <mxGeometry x="187" width="94" height="31" as="geometry">
            <mxRectangle width="94" height="31" as="alternateBounds" />
          </mxGeometry>
        </mxCell>
        <mxCell id="JxcwZFcFQ31Dh_2m2aZE-195" value="" style="shape=tableRow;horizontal=0;startSize=0;swimlaneHead=0;swimlaneBody=0;top=0;left=0;bottom=0;right=0;dropTarget=0;collapsible=0;recursiveResize=0;expand=0;fontStyle=0;strokeColor=inherit;fillColor=#ffffff;" parent="JxcwZFcFQ31Dh_2m2aZE-185" vertex="1">
          <mxGeometry y="96" width="281" height="33" as="geometry" />
        </mxCell>
        <mxCell id="JxcwZFcFQ31Dh_2m2aZE-196" value="12" style="connectable=0;recursiveResize=0;strokeColor=inherit;fillColor=inherit;fontStyle=0;align=center;whiteSpace=wrap;html=1;" parent="JxcwZFcFQ31Dh_2m2aZE-195" vertex="1">
          <mxGeometry width="93" height="33" as="geometry">
            <mxRectangle width="93" height="33" as="alternateBounds" />
          </mxGeometry>
        </mxCell>
        <mxCell id="JxcwZFcFQ31Dh_2m2aZE-197" value="1" style="connectable=0;recursiveResize=0;strokeColor=inherit;fillColor=inherit;fontStyle=0;align=center;whiteSpace=wrap;html=1;" parent="JxcwZFcFQ31Dh_2m2aZE-195" vertex="1">
          <mxGeometry x="93" width="94" height="33" as="geometry">
            <mxRectangle width="94" height="33" as="alternateBounds" />
          </mxGeometry>
        </mxCell>
        <mxCell id="JxcwZFcFQ31Dh_2m2aZE-201" value="Moura" style="connectable=0;recursiveResize=0;strokeColor=inherit;fillColor=inherit;fontStyle=0;align=center;whiteSpace=wrap;html=1;" parent="JxcwZFcFQ31Dh_2m2aZE-195" vertex="1">
          <mxGeometry x="187" width="94" height="33" as="geometry">
            <mxRectangle width="94" height="33" as="alternateBounds" />
          </mxGeometry>
        </mxCell>
        <mxCell id="JxcwZFcFQ31Dh_2m2aZE-202" value="Assets" style="childLayout=tableLayout;recursiveResize=0;shadow=0;" parent="1" vertex="1">
          <mxGeometry x="250" y="1260" width="657" height="129" as="geometry" />
        </mxCell>
        <mxCell id="JxcwZFcFQ31Dh_2m2aZE-203" style="shape=tableRow;horizontal=0;startSize=0;swimlaneHead=0;swimlaneBody=0;top=0;left=0;bottom=0;right=0;dropTarget=0;collapsible=0;recursiveResize=0;expand=0;fontStyle=0;strokeColor=inherit;fillColor=#ffffff;" parent="JxcwZFcFQ31Dh_2m2aZE-202" vertex="1">
          <mxGeometry width="657" height="33" as="geometry" />
        </mxCell>
        <mxCell id="JxcwZFcFQ31Dh_2m2aZE-204" value="IdPet" style="connectable=0;recursiveResize=0;strokeColor=inherit;fillColor=#A7C942;align=center;fontStyle=1;fontColor=#FFFFFF;html=1;" parent="JxcwZFcFQ31Dh_2m2aZE-203" vertex="1">
          <mxGeometry width="93" height="33" as="geometry">
            <mxRectangle width="93" height="33" as="alternateBounds" />
          </mxGeometry>
        </mxCell>
        <mxCell id="JxcwZFcFQ31Dh_2m2aZE-205" value="Nome" style="connectable=0;recursiveResize=0;strokeColor=inherit;fillColor=#A7C942;align=center;fontStyle=1;fontColor=#FFFFFF;html=1;" parent="JxcwZFcFQ31Dh_2m2aZE-203" vertex="1">
          <mxGeometry x="93" width="94" height="33" as="geometry">
            <mxRectangle width="94" height="33" as="alternateBounds" />
          </mxGeometry>
        </mxCell>
        <mxCell id="JxcwZFcFQ31Dh_2m2aZE-206" value="Data de&amp;nbsp;&lt;br&gt;Nascimento" style="connectable=0;recursiveResize=0;strokeColor=inherit;fillColor=#A7C942;align=center;fontStyle=1;fontColor=#FFFFFF;html=1;" parent="JxcwZFcFQ31Dh_2m2aZE-203" vertex="1">
          <mxGeometry x="187" width="94" height="33" as="geometry">
            <mxRectangle width="94" height="33" as="alternateBounds" />
          </mxGeometry>
        </mxCell>
        <mxCell id="JxcwZFcFQ31Dh_2m2aZE-219" value="IdTipo" style="connectable=0;recursiveResize=0;strokeColor=inherit;fillColor=#A7C942;align=center;fontStyle=1;fontColor=#FFFFFF;html=1;" parent="JxcwZFcFQ31Dh_2m2aZE-203" vertex="1">
          <mxGeometry x="281" width="94" height="33" as="geometry">
            <mxRectangle width="94" height="33" as="alternateBounds" />
          </mxGeometry>
        </mxCell>
        <mxCell id="JxcwZFcFQ31Dh_2m2aZE-223" value="IdRaça" style="connectable=0;recursiveResize=0;strokeColor=inherit;fillColor=#A7C942;align=center;fontStyle=1;fontColor=#FFFFFF;html=1;" parent="JxcwZFcFQ31Dh_2m2aZE-203" vertex="1">
          <mxGeometry x="375" width="94" height="33" as="geometry">
            <mxRectangle width="94" height="33" as="alternateBounds" />
          </mxGeometry>
        </mxCell>
        <mxCell id="JxcwZFcFQ31Dh_2m2aZE-227" value="IdDono" style="connectable=0;recursiveResize=0;strokeColor=inherit;fillColor=#A7C942;align=center;fontStyle=1;fontColor=#FFFFFF;html=1;" parent="JxcwZFcFQ31Dh_2m2aZE-203" vertex="1">
          <mxGeometry x="469" width="94" height="33" as="geometry">
            <mxRectangle width="94" height="33" as="alternateBounds" />
          </mxGeometry>
        </mxCell>
        <mxCell id="JxcwZFcFQ31Dh_2m2aZE-231" value="idVeterinario" style="connectable=0;recursiveResize=0;strokeColor=inherit;fillColor=#A7C942;align=center;fontStyle=1;fontColor=#FFFFFF;html=1;" parent="JxcwZFcFQ31Dh_2m2aZE-203" vertex="1">
          <mxGeometry x="563" width="94" height="33" as="geometry">
            <mxRectangle width="94" height="33" as="alternateBounds" />
          </mxGeometry>
        </mxCell>
        <mxCell id="JxcwZFcFQ31Dh_2m2aZE-207" value="" style="shape=tableRow;horizontal=0;startSize=0;swimlaneHead=0;swimlaneBody=0;top=0;left=0;bottom=0;right=0;dropTarget=0;collapsible=0;recursiveResize=0;expand=0;fontStyle=0;strokeColor=inherit;fillColor=#ffffff;" parent="JxcwZFcFQ31Dh_2m2aZE-202" vertex="1">
          <mxGeometry y="33" width="657" height="32" as="geometry" />
        </mxCell>
        <mxCell id="JxcwZFcFQ31Dh_2m2aZE-208" value="1" style="connectable=0;recursiveResize=0;strokeColor=inherit;fillColor=inherit;align=center;whiteSpace=wrap;html=1;" parent="JxcwZFcFQ31Dh_2m2aZE-207" vertex="1">
          <mxGeometry width="93" height="32" as="geometry">
            <mxRectangle width="93" height="32" as="alternateBounds" />
          </mxGeometry>
        </mxCell>
        <mxCell id="JxcwZFcFQ31Dh_2m2aZE-209" value="Tito" style="connectable=0;recursiveResize=0;strokeColor=inherit;fillColor=inherit;align=center;whiteSpace=wrap;html=1;" parent="JxcwZFcFQ31Dh_2m2aZE-207" vertex="1">
          <mxGeometry x="93" width="94" height="32" as="geometry">
            <mxRectangle width="94" height="32" as="alternateBounds" />
          </mxGeometry>
        </mxCell>
        <mxCell id="JxcwZFcFQ31Dh_2m2aZE-210" value="25/01/17" style="connectable=0;recursiveResize=0;strokeColor=inherit;fillColor=inherit;align=center;whiteSpace=wrap;html=1;" parent="JxcwZFcFQ31Dh_2m2aZE-207" vertex="1">
          <mxGeometry x="187" width="94" height="32" as="geometry">
            <mxRectangle width="94" height="32" as="alternateBounds" />
          </mxGeometry>
        </mxCell>
        <mxCell id="JxcwZFcFQ31Dh_2m2aZE-220" value="3" style="connectable=0;recursiveResize=0;strokeColor=inherit;fillColor=inherit;align=center;whiteSpace=wrap;html=1;" parent="JxcwZFcFQ31Dh_2m2aZE-207" vertex="1">
          <mxGeometry x="281" width="94" height="32" as="geometry">
            <mxRectangle width="94" height="32" as="alternateBounds" />
          </mxGeometry>
        </mxCell>
        <mxCell id="JxcwZFcFQ31Dh_2m2aZE-224" value="4" style="connectable=0;recursiveResize=0;strokeColor=inherit;fillColor=inherit;align=center;whiteSpace=wrap;html=1;" parent="JxcwZFcFQ31Dh_2m2aZE-207" vertex="1">
          <mxGeometry x="375" width="94" height="32" as="geometry">
            <mxRectangle width="94" height="32" as="alternateBounds" />
          </mxGeometry>
        </mxCell>
        <mxCell id="JxcwZFcFQ31Dh_2m2aZE-228" value="2" style="connectable=0;recursiveResize=0;strokeColor=inherit;fillColor=inherit;align=center;whiteSpace=wrap;html=1;" parent="JxcwZFcFQ31Dh_2m2aZE-207" vertex="1">
          <mxGeometry x="469" width="94" height="32" as="geometry">
            <mxRectangle width="94" height="32" as="alternateBounds" />
          </mxGeometry>
        </mxCell>
        <mxCell id="JxcwZFcFQ31Dh_2m2aZE-232" value="10" style="connectable=0;recursiveResize=0;strokeColor=inherit;fillColor=inherit;align=center;whiteSpace=wrap;html=1;" parent="JxcwZFcFQ31Dh_2m2aZE-207" vertex="1">
          <mxGeometry x="563" width="94" height="32" as="geometry">
            <mxRectangle width="94" height="32" as="alternateBounds" />
          </mxGeometry>
        </mxCell>
        <mxCell id="JxcwZFcFQ31Dh_2m2aZE-211" value="" style="shape=tableRow;horizontal=0;startSize=0;swimlaneHead=0;swimlaneBody=0;top=0;left=0;bottom=0;right=0;dropTarget=0;collapsible=0;recursiveResize=0;expand=0;fontStyle=1;strokeColor=inherit;fillColor=#EAF2D3;" parent="JxcwZFcFQ31Dh_2m2aZE-202" vertex="1">
          <mxGeometry y="65" width="657" height="31" as="geometry" />
        </mxCell>
        <mxCell id="JxcwZFcFQ31Dh_2m2aZE-212" value="2" style="connectable=0;recursiveResize=0;strokeColor=inherit;fillColor=inherit;whiteSpace=wrap;html=1;" parent="JxcwZFcFQ31Dh_2m2aZE-211" vertex="1">
          <mxGeometry width="93" height="31" as="geometry">
            <mxRectangle width="93" height="31" as="alternateBounds" />
          </mxGeometry>
        </mxCell>
        <mxCell id="JxcwZFcFQ31Dh_2m2aZE-213" value="Loro" style="connectable=0;recursiveResize=0;strokeColor=inherit;fillColor=inherit;whiteSpace=wrap;html=1;" parent="JxcwZFcFQ31Dh_2m2aZE-211" vertex="1">
          <mxGeometry x="93" width="94" height="31" as="geometry">
            <mxRectangle width="94" height="31" as="alternateBounds" />
          </mxGeometry>
        </mxCell>
        <mxCell id="JxcwZFcFQ31Dh_2m2aZE-214" value="03/05/20" style="connectable=0;recursiveResize=0;strokeColor=inherit;fillColor=inherit;whiteSpace=wrap;html=1;" parent="JxcwZFcFQ31Dh_2m2aZE-211" vertex="1">
          <mxGeometry x="187" width="94" height="31" as="geometry">
            <mxRectangle width="94" height="31" as="alternateBounds" />
          </mxGeometry>
        </mxCell>
        <mxCell id="JxcwZFcFQ31Dh_2m2aZE-221" value="5" style="connectable=0;recursiveResize=0;strokeColor=inherit;fillColor=inherit;whiteSpace=wrap;html=1;" parent="JxcwZFcFQ31Dh_2m2aZE-211" vertex="1">
          <mxGeometry x="281" width="94" height="31" as="geometry">
            <mxRectangle width="94" height="31" as="alternateBounds" />
          </mxGeometry>
        </mxCell>
        <mxCell id="JxcwZFcFQ31Dh_2m2aZE-225" value="1" style="connectable=0;recursiveResize=0;strokeColor=inherit;fillColor=inherit;whiteSpace=wrap;html=1;" parent="JxcwZFcFQ31Dh_2m2aZE-211" vertex="1">
          <mxGeometry x="375" width="94" height="31" as="geometry">
            <mxRectangle width="94" height="31" as="alternateBounds" />
          </mxGeometry>
        </mxCell>
        <mxCell id="JxcwZFcFQ31Dh_2m2aZE-229" value="1" style="connectable=0;recursiveResize=0;strokeColor=inherit;fillColor=inherit;whiteSpace=wrap;html=1;" parent="JxcwZFcFQ31Dh_2m2aZE-211" vertex="1">
          <mxGeometry x="469" width="94" height="31" as="geometry">
            <mxRectangle width="94" height="31" as="alternateBounds" />
          </mxGeometry>
        </mxCell>
        <mxCell id="JxcwZFcFQ31Dh_2m2aZE-233" value="12" style="connectable=0;recursiveResize=0;strokeColor=inherit;fillColor=inherit;whiteSpace=wrap;html=1;" parent="JxcwZFcFQ31Dh_2m2aZE-211" vertex="1">
          <mxGeometry x="563" width="94" height="31" as="geometry">
            <mxRectangle width="94" height="31" as="alternateBounds" />
          </mxGeometry>
        </mxCell>
        <mxCell id="JxcwZFcFQ31Dh_2m2aZE-215" value="" style="shape=tableRow;horizontal=0;startSize=0;swimlaneHead=0;swimlaneBody=0;top=0;left=0;bottom=0;right=0;dropTarget=0;collapsible=0;recursiveResize=0;expand=0;fontStyle=0;strokeColor=inherit;fillColor=#ffffff;" parent="JxcwZFcFQ31Dh_2m2aZE-202" vertex="1">
          <mxGeometry y="96" width="657" height="33" as="geometry" />
        </mxCell>
        <mxCell id="JxcwZFcFQ31Dh_2m2aZE-216" value="3" style="connectable=0;recursiveResize=0;strokeColor=inherit;fillColor=inherit;fontStyle=0;align=center;whiteSpace=wrap;html=1;" parent="JxcwZFcFQ31Dh_2m2aZE-215" vertex="1">
          <mxGeometry width="93" height="33" as="geometry">
            <mxRectangle width="93" height="33" as="alternateBounds" />
          </mxGeometry>
        </mxCell>
        <mxCell id="JxcwZFcFQ31Dh_2m2aZE-217" value="Brutus" style="connectable=0;recursiveResize=0;strokeColor=inherit;fillColor=inherit;fontStyle=0;align=center;whiteSpace=wrap;html=1;" parent="JxcwZFcFQ31Dh_2m2aZE-215" vertex="1">
          <mxGeometry x="93" width="94" height="33" as="geometry">
            <mxRectangle width="94" height="33" as="alternateBounds" />
          </mxGeometry>
        </mxCell>
        <mxCell id="JxcwZFcFQ31Dh_2m2aZE-218" value="10/09/22" style="connectable=0;recursiveResize=0;strokeColor=inherit;fillColor=inherit;fontStyle=0;align=center;whiteSpace=wrap;html=1;" parent="JxcwZFcFQ31Dh_2m2aZE-215" vertex="1">
          <mxGeometry x="187" width="94" height="33" as="geometry">
            <mxRectangle width="94" height="33" as="alternateBounds" />
          </mxGeometry>
        </mxCell>
        <mxCell id="JxcwZFcFQ31Dh_2m2aZE-222" value="2" style="connectable=0;recursiveResize=0;strokeColor=inherit;fillColor=inherit;fontStyle=0;align=center;whiteSpace=wrap;html=1;" parent="JxcwZFcFQ31Dh_2m2aZE-215" vertex="1">
          <mxGeometry x="281" width="94" height="33" as="geometry">
            <mxRectangle width="94" height="33" as="alternateBounds" />
          </mxGeometry>
        </mxCell>
        <mxCell id="JxcwZFcFQ31Dh_2m2aZE-226" value="7" style="connectable=0;recursiveResize=0;strokeColor=inherit;fillColor=inherit;fontStyle=0;align=center;whiteSpace=wrap;html=1;" parent="JxcwZFcFQ31Dh_2m2aZE-215" vertex="1">
          <mxGeometry x="375" width="94" height="33" as="geometry">
            <mxRectangle width="94" height="33" as="alternateBounds" />
          </mxGeometry>
        </mxCell>
        <mxCell id="JxcwZFcFQ31Dh_2m2aZE-230" value="3" style="connectable=0;recursiveResize=0;strokeColor=inherit;fillColor=inherit;fontStyle=0;align=center;whiteSpace=wrap;html=1;" parent="JxcwZFcFQ31Dh_2m2aZE-215" vertex="1">
          <mxGeometry x="469" width="94" height="33" as="geometry">
            <mxRectangle width="94" height="33" as="alternateBounds" />
          </mxGeometry>
        </mxCell>
        <mxCell id="JxcwZFcFQ31Dh_2m2aZE-234" value="11" style="connectable=0;recursiveResize=0;strokeColor=inherit;fillColor=inherit;fontStyle=0;align=center;whiteSpace=wrap;html=1;" parent="JxcwZFcFQ31Dh_2m2aZE-215" vertex="1">
          <mxGeometry x="563" width="94" height="33" as="geometry">
            <mxRectangle width="94" height="33" as="alternateBounds" />
          </mxGeometry>
        </mxCell>
        <mxCell id="JxcwZFcFQ31Dh_2m2aZE-235" value="Assets" style="childLayout=tableLayout;recursiveResize=0;shadow=0;" parent="1" vertex="1">
          <mxGeometry x="450" y="1080" width="187" height="129" as="geometry" />
        </mxCell>
        <mxCell id="JxcwZFcFQ31Dh_2m2aZE-236" style="shape=tableRow;horizontal=0;startSize=0;swimlaneHead=0;swimlaneBody=0;top=0;left=0;bottom=0;right=0;dropTarget=0;collapsible=0;recursiveResize=0;expand=0;fontStyle=0;strokeColor=inherit;fillColor=#ffffff;" parent="JxcwZFcFQ31Dh_2m2aZE-235" vertex="1">
          <mxGeometry width="187" height="33" as="geometry" />
        </mxCell>
        <mxCell id="JxcwZFcFQ31Dh_2m2aZE-237" value="IdTipo" style="connectable=0;recursiveResize=0;strokeColor=inherit;fillColor=#A7C942;align=center;fontStyle=1;fontColor=#FFFFFF;html=1;" parent="JxcwZFcFQ31Dh_2m2aZE-236" vertex="1">
          <mxGeometry width="93" height="33" as="geometry">
            <mxRectangle width="93" height="33" as="alternateBounds" />
          </mxGeometry>
        </mxCell>
        <mxCell id="JxcwZFcFQ31Dh_2m2aZE-238" value="Nome tipo" style="connectable=0;recursiveResize=0;strokeColor=inherit;fillColor=#A7C942;align=center;fontStyle=1;fontColor=#FFFFFF;html=1;" parent="JxcwZFcFQ31Dh_2m2aZE-236" vertex="1">
          <mxGeometry x="93" width="94" height="33" as="geometry">
            <mxRectangle width="94" height="33" as="alternateBounds" />
          </mxGeometry>
        </mxCell>
        <mxCell id="JxcwZFcFQ31Dh_2m2aZE-239" value="" style="shape=tableRow;horizontal=0;startSize=0;swimlaneHead=0;swimlaneBody=0;top=0;left=0;bottom=0;right=0;dropTarget=0;collapsible=0;recursiveResize=0;expand=0;fontStyle=0;strokeColor=inherit;fillColor=#ffffff;" parent="JxcwZFcFQ31Dh_2m2aZE-235" vertex="1">
          <mxGeometry y="33" width="187" height="32" as="geometry" />
        </mxCell>
        <mxCell id="JxcwZFcFQ31Dh_2m2aZE-240" value="2" style="connectable=0;recursiveResize=0;strokeColor=inherit;fillColor=inherit;align=center;whiteSpace=wrap;html=1;" parent="JxcwZFcFQ31Dh_2m2aZE-239" vertex="1">
          <mxGeometry width="93" height="32" as="geometry">
            <mxRectangle width="93" height="32" as="alternateBounds" />
          </mxGeometry>
        </mxCell>
        <mxCell id="JxcwZFcFQ31Dh_2m2aZE-241" value="Cachorro" style="connectable=0;recursiveResize=0;strokeColor=inherit;fillColor=inherit;align=center;whiteSpace=wrap;html=1;" parent="JxcwZFcFQ31Dh_2m2aZE-239" vertex="1">
          <mxGeometry x="93" width="94" height="32" as="geometry">
            <mxRectangle width="94" height="32" as="alternateBounds" />
          </mxGeometry>
        </mxCell>
        <mxCell id="JxcwZFcFQ31Dh_2m2aZE-242" value="" style="shape=tableRow;horizontal=0;startSize=0;swimlaneHead=0;swimlaneBody=0;top=0;left=0;bottom=0;right=0;dropTarget=0;collapsible=0;recursiveResize=0;expand=0;fontStyle=1;strokeColor=inherit;fillColor=#EAF2D3;" parent="JxcwZFcFQ31Dh_2m2aZE-235" vertex="1">
          <mxGeometry y="65" width="187" height="31" as="geometry" />
        </mxCell>
        <mxCell id="JxcwZFcFQ31Dh_2m2aZE-243" value="3" style="connectable=0;recursiveResize=0;strokeColor=inherit;fillColor=inherit;whiteSpace=wrap;html=1;" parent="JxcwZFcFQ31Dh_2m2aZE-242" vertex="1">
          <mxGeometry width="93" height="31" as="geometry">
            <mxRectangle width="93" height="31" as="alternateBounds" />
          </mxGeometry>
        </mxCell>
        <mxCell id="JxcwZFcFQ31Dh_2m2aZE-244" value="Gato&amp;nbsp;" style="connectable=0;recursiveResize=0;strokeColor=inherit;fillColor=inherit;whiteSpace=wrap;html=1;" parent="JxcwZFcFQ31Dh_2m2aZE-242" vertex="1">
          <mxGeometry x="93" width="94" height="31" as="geometry">
            <mxRectangle width="94" height="31" as="alternateBounds" />
          </mxGeometry>
        </mxCell>
        <mxCell id="JxcwZFcFQ31Dh_2m2aZE-245" value="" style="shape=tableRow;horizontal=0;startSize=0;swimlaneHead=0;swimlaneBody=0;top=0;left=0;bottom=0;right=0;dropTarget=0;collapsible=0;recursiveResize=0;expand=0;fontStyle=0;strokeColor=inherit;fillColor=#ffffff;" parent="JxcwZFcFQ31Dh_2m2aZE-235" vertex="1">
          <mxGeometry y="96" width="187" height="33" as="geometry" />
        </mxCell>
        <mxCell id="JxcwZFcFQ31Dh_2m2aZE-246" value="5" style="connectable=0;recursiveResize=0;strokeColor=inherit;fillColor=inherit;fontStyle=0;align=center;whiteSpace=wrap;html=1;" parent="JxcwZFcFQ31Dh_2m2aZE-245" vertex="1">
          <mxGeometry width="93" height="33" as="geometry">
            <mxRectangle width="93" height="33" as="alternateBounds" />
          </mxGeometry>
        </mxCell>
        <mxCell id="JxcwZFcFQ31Dh_2m2aZE-247" value="Pássaro" style="connectable=0;recursiveResize=0;strokeColor=inherit;fillColor=inherit;fontStyle=0;align=center;whiteSpace=wrap;html=1;" parent="JxcwZFcFQ31Dh_2m2aZE-245" vertex="1">
          <mxGeometry x="93" width="94" height="33" as="geometry">
            <mxRectangle width="94" height="33" as="alternateBounds" />
          </mxGeometry>
        </mxCell>
        <mxCell id="JxcwZFcFQ31Dh_2m2aZE-252" value="Conceitual" style="text;html=1;align=center;verticalAlign=middle;resizable=0;points=[];autosize=1;strokeColor=#b85450;fillColor=#f8cecc;" parent="1" vertex="1">
          <mxGeometry x="510" y="438" width="80" height="30" as="geometry" />
        </mxCell>
        <mxCell id="JxcwZFcFQ31Dh_2m2aZE-253" value="Lógico" style="text;html=1;align=center;verticalAlign=middle;resizable=0;points=[];autosize=1;strokeColor=#b85450;fillColor=#f8cecc;" parent="1" vertex="1">
          <mxGeometry x="565" y="720" width="60" height="30" as="geometry" />
        </mxCell>
        <mxCell id="JxcwZFcFQ31Dh_2m2aZE-254" value="Físico" style="text;html=1;align=center;verticalAlign=middle;resizable=0;points=[];autosize=1;strokeColor=#b85450;fillColor=#f8cecc;" parent="1" vertex="1">
          <mxGeometry x="850" y="1040" width="60" height="30" as="geometry" />
        </mxCell>
        <mxCell id="f_vkEGUty7Q4LF-aTfc2-1" value="&lt;b&gt;Clínica&lt;/b&gt;" style="text;html=1;align=center;verticalAlign=middle;resizable=0;points=[];autosize=1;strokeColor=#82b366;fillColor=#d5e8d4;" parent="1" vertex="1">
          <mxGeometry x="103.5" y="1040" width="60" height="30" as="geometry" />
        </mxCell>
        <mxCell id="f_vkEGUty7Q4LF-aTfc2-2" value="&lt;b&gt;Raça&lt;/b&gt;" style="text;html=1;align=center;verticalAlign=middle;resizable=0;points=[];autosize=1;strokeColor=#82b366;fillColor=#d5e8d4;" parent="1" vertex="1">
          <mxGeometry x="318.5" y="1040" width="50" height="30" as="geometry" />
        </mxCell>
        <mxCell id="f_vkEGUty7Q4LF-aTfc2-3" value="&lt;b&gt;Tipo&lt;/b&gt;" style="text;html=1;align=center;verticalAlign=middle;resizable=0;points=[];autosize=1;strokeColor=#82b366;fillColor=#d5e8d4;" parent="1" vertex="1">
          <mxGeometry x="515" y="1040" width="50" height="30" as="geometry" />
        </mxCell>
        <mxCell id="f_vkEGUty7Q4LF-aTfc2-4" value="&lt;b&gt;Veterinario&lt;/b&gt;" style="text;html=1;align=center;verticalAlign=middle;resizable=0;points=[];autosize=1;strokeColor=#82b366;fillColor=#d5e8d4;" parent="1" vertex="1">
          <mxGeometry x="690" y="1040" width="90" height="30" as="geometry" />
        </mxCell>
        <mxCell id="f_vkEGUty7Q4LF-aTfc2-5" value="&lt;b&gt;Pet&lt;/b&gt;" style="text;html=1;align=center;verticalAlign=middle;resizable=0;points=[];autosize=1;strokeColor=#82b366;fillColor=#d5e8d4;" parent="1" vertex="1">
          <mxGeometry x="535" y="1220" width="40" height="30" as="geometry" />
        </mxCell>
        <mxCell id="f_vkEGUty7Q4LF-aTfc2-6" value="&lt;b&gt;Dono&lt;/b&gt;" style="text;html=1;align=center;verticalAlign=middle;resizable=0;points=[];autosize=1;strokeColor=#82b366;fillColor=#d5e8d4;" parent="1" vertex="1">
          <mxGeometry x="105" y="1209" width="50" height="30" as="geometry" />
        </mxCell>
      </root>
    </mxGraphModel>
  </diagram>
</mxfile>
